<svg xmlns="http://www.w3.org/2000/svg" viewBox="0 0 72.1 67.75"><defs><style>.cls-1{isolation:isolate;}.cls-2,.cls-7{fill:#e6e6e6;}.cls-3{fill:#1488c8;}.cls-4{fill:#ccc;}.cls-4,.cls-7{mix-blend-mode:multiply;}.cls-5{fill:#34b67a;}.cls-6{fill:#fbcb43;}.cls-8{fill:#f2f2f2;}.cls-9{fill:#dc4437;}.cls-10{fill:#fff;}.cls-11{fill:#77bf5a;}.cls-12{fill:#59abe3;}</style></defs><g class="cls-1"><g id="Слой_2" data-name="Слой 2"><g id="Layer"><rect class="cls-2" x="24.28" y="42.65" width="23.55" height="25.1"/><rect class="cls-3" x="24.75" y="61.6" width="4.73" height="4.91"/><rect class="cls-3" x="29.94" y="65.6" width="16.94" height="0.91"/><rect class="cls-3" x="29.98" y="64.26" width="16.94" height="0.91"/><rect class="cls-3" x="29.94" y="62.89" width="16.94" height="0.91"/><rect class="cls-3" x="29.98" y="61.6" width="16.94" height="0.91"/><polygon class="cls-4" points="47.82 65.85 24.28 64.26 24.28 61.97 47.82 61.97 47.82 65.85"/><rect class="cls-2" x="19.74" y="36.32" width="32.62" height="25.65"/><rect class="cls-5" x="23.92" y="57.4" width="27.76" height="2.82"/><rect class="cls-5" x="23.92" y="53.59" width="27.76" height="2.82"/><rect class="cls-6" x="20.69" y="57.4" width="2.49" height="2.82"/><rect class="cls-6" x="20.69" y="53.71" width="2.49" height="2.82"/><rect class="cls-7" x="19.74" y="36.32" width="32.62" height="25.65"/><polygon class="cls-4" points="52.36 58.81 19.74 56.95 19.74 53.59 52.36 53.59 52.36 58.81"/><rect class="cls-8" x="13.7" y="23.98" width="44.7" height="30.41"/><rect class="cls-2" x="14.79" y="23.98" width="42.52" height="28.91"/><rect class="cls-9" x="14.79" y="23.98" width="14.4" height="28.91"/><rect class="cls-6" x="49.22" y="23.98" width="7.81" height="28.91"/><rect class="cls-9" x="30.37" y="23.98" width="17.46" height="28.91"/><polygon class="cls-4" points="58.4 49.99 13.7 47.51 13.7 45.43 58.4 45.43 58.4 49.99"/><polygon class="cls-10" points="72.1 45.43 0 45.43 0 2.84 72.1 2.66 72.1 45.43"/><polygon class="cls-10" points="72.1 45.43 0 45.43 0 2.84 72.1 3.04 72.1 45.43"/><polygon class="cls-9" points="52.73 18.05 19.43 18.05 19.43 15.78 52.73 15.77 52.73 18.05"/><polygon class="cls-9" points="52.73 21.31 19.43 21.31 19.43 19.04 52.73 19.03 52.73 21.31"/><polygon class="cls-11" points="69.24 14.65 2.92 14.65 2.92 7.81 69.24 7.78 69.24 14.65"/><rect class="cls-11" x="19.43" y="22.3" width="33.3" height="9.7"/><rect class="cls-11" x="19.43" y="33.12" width="33.3" height="9.74"/><path class="cls-12" d="M72.1,3.53V2.38C72.1,1.07,70.65,0,68.86,0H3.24C1.45,0,0,1.07,0,2.38V3.53Z"/><rect class="cls-12" x="2.74" y="15.77" width="15.67" height="27.09"/><rect class="cls-12" x="53.87" y="15.77" width="15.36" height="27.09"/><rect class="cls-8" x="63.36" width="4.43" height="1.71"/></g></g></g></svg>