<svg xmlns="http://www.w3.org/2000/svg" viewBox="0 0 79.23 66.66"><defs><style>.cls-1{fill:#fff;}.cls-2{fill:#439cd9;}.cls-3{fill:#999;}.cls-4{fill:#666;}.cls-5{fill:#e57368;}.cls-6{fill:#f5b400;}.cls-7{fill:#f2f2f2;}.cls-8{fill:#64b044;}.cls-9{fill:#5f9653;}.cls-10{fill:#dc4437;}</style></defs><g id="Слой_2" data-name="Слой 2"><g id="Layer"><rect class="cls-1" x="0.99" width="43.7" height="33.38" rx="2.91"/><path class="cls-2" d="M44.69,3.54V2.91A2.91,2.91,0,0,0,41.78,0H3.9A2.91,2.91,0,0,0,1,2.91v.63Z"/><path class="cls-1" d="M42.06,1.77a.85.85,0,0,1-.84.84.84.84,0,0,1,0-1.68A.85.85,0,0,1,42.06,1.77Z"/><path class="cls-1" d="M39.77,1.77a.84.84,0,0,1-.83.84.84.84,0,0,1,0-1.68A.84.84,0,0,1,39.77,1.77Z"/><path class="cls-1" d="M37.47,1.77a.85.85,0,0,1-.84.84.84.84,0,0,1,0-1.68A.85.85,0,0,1,37.47,1.77Z"/><rect class="cls-3" x="6.01" y="12.76" width="9.62" height="1.25"/><rect class="cls-3" x="3.23" y="14.95" width="12.4" height="1.25"/><rect class="cls-3" x="3.23" y="17.13" width="12.4" height="1.25"/><rect class="cls-3" x="3.23" y="19.32" width="12.4" height="1.25"/><rect class="cls-3" x="3.23" y="21.5" width="12.4" height="1.25"/><rect class="cls-3" x="3.23" y="23.69" width="12.4" height="1.25"/><rect class="cls-3" x="3.23" y="25.87" width="5.21" height="1.25"/><rect class="cls-4" x="9.43" y="25.33" width="6.2" height="1.78"/><rect class="cls-4" x="30.05" y="29.7" width="6.2" height="1.78"/><rect class="cls-4" x="36.25" y="16.6" width="6.2" height="1.78"/><rect class="cls-3" x="3.23" y="28.06" width="12.4" height="1.25"/><rect class="cls-3" x="3.23" y="30.24" width="12.4" height="1.25"/><rect class="cls-3" x="16.82" y="12.76" width="12.39" height="1.25"/><rect class="cls-3" x="16.82" y="14.95" width="12.39" height="1.25"/><rect class="cls-3" x="19.33" y="19.32" width="9.88" height="1.25"/><rect class="cls-3" x="16.82" y="21.5" width="12.39" height="1.25"/><rect class="cls-3" x="16.82" y="23.69" width="12.39" height="1.25"/><rect class="cls-3" x="16.82" y="25.87" width="12.39" height="1.25"/><rect class="cls-3" x="16.82" y="28.06" width="12.39" height="1.25"/><rect class="cls-3" x="16.82" y="30.24" width="12.39" height="1.25"/><rect class="cls-3" x="32.22" y="12.76" width="10.22" height="1.25"/><rect class="cls-3" x="30.05" y="14.95" width="12.39" height="1.25"/><rect class="cls-3" x="30.05" y="17.13" width="5.66" height="1.25"/><rect class="cls-3" x="30.05" y="19.32" width="12.39" height="1.25"/><rect class="cls-3" x="30.05" y="21.5" width="12.39" height="1.25"/><rect class="cls-3" x="30.05" y="23.69" width="12.39" height="1.25"/><rect class="cls-3" x="30.05" y="25.87" width="12.39" height="1.25"/><rect class="cls-3" x="30.05" y="28.06" width="12.39" height="1.25"/><rect class="cls-3" x="36.79" y="30.24" width="3.14" height="1.25"/><rect class="cls-5" x="16.39" y="5.27" width="12.91" height="1.75"/><rect class="cls-6" x="3.23" y="8.29" width="39.21" height="3.28"/><rect class="cls-7" x="47.84" y="9.41" width="31.39" height="23.97" rx="2.09"/><path class="cls-2" d="M79.23,12v-.46a2.09,2.09,0,0,0-2.09-2.08H49.93a2.09,2.09,0,0,0-2.09,2.08V12Z"/><path class="cls-1" d="M77.34,10.68a.6.6,0,0,1-.6.6.6.6,0,0,1,0-1.2A.6.6,0,0,1,77.34,10.68Z"/><path class="cls-1" d="M75.7,10.68a.6.6,0,0,1-.6.6.6.6,0,0,1,0-1.2A.6.6,0,0,1,75.7,10.68Z"/><path class="cls-1" d="M74,10.68a.6.6,0,1,1-.6-.6A.6.6,0,0,1,74,10.68Z"/><rect class="cls-3" x="51.45" y="16.84" width="6.91" height="0.9"/><rect class="cls-3" x="49.45" y="18.41" width="8.9" height="0.9"/><rect class="cls-3" x="49.45" y="19.98" width="8.9" height="0.89"/><rect class="cls-3" x="49.45" y="21.55" width="8.9" height="0.89"/><rect class="cls-3" x="49.45" y="23.12" width="8.9" height="0.89"/><rect class="cls-3" x="49.45" y="24.69" width="8.9" height="0.89"/><rect class="cls-3" x="49.45" y="26.26" width="3.74" height="0.89"/><rect class="cls-4" x="59.21" y="29.01" width="4.45" height="1.28"/><rect class="cls-4" x="73.17" y="19.6" width="4.45" height="1.28"/><rect class="cls-3" x="61.01" y="21.55" width="7.1" height="0.89"/><rect class="cls-3" x="59.21" y="23.12" width="8.9" height="0.89"/><rect class="cls-3" x="59.21" y="24.69" width="8.9" height="0.89"/><rect class="cls-3" x="59.21" y="26.26" width="8.9" height="0.89"/><rect class="cls-3" x="64.02" y="29.4" width="4.09" height="0.89"/><rect class="cls-3" x="70.28" y="16.84" width="7.34" height="0.89"/><rect class="cls-3" x="68.72" y="18.41" width="8.9" height="0.9"/><rect class="cls-3" x="68.72" y="19.98" width="4.07" height="0.9"/><rect class="cls-3" x="68.72" y="21.55" width="8.9" height="0.89"/><rect class="cls-3" x="68.72" y="23.12" width="8.9" height="0.89"/><rect class="cls-3" x="68.72" y="24.69" width="8.9" height="0.89"/><rect class="cls-3" x="68.72" y="26.26" width="8.9" height="0.89"/><rect class="cls-3" x="59.21" y="19.77" width="8.9" height="0.89"/><rect class="cls-3" x="59.21" y="18.31" width="8.9" height="0.9"/><rect class="cls-3" x="59.21" y="16.85" width="8.9" height="0.9"/><rect class="cls-3" x="73.55" y="29.4" width="4.06" height="0.89"/><rect class="cls-3" x="68.72" y="27.88" width="8.9" height="0.9"/><rect class="cls-6" x="49.45" y="16.84" width="8.9" height="7.17"/><rect class="cls-2" x="59.21" y="21.16" width="8.9" height="7.17"/><rect class="cls-6" x="68.72" y="16.84" width="8.9" height="10.31"/><rect class="cls-8" x="56.49" y="13.32" width="14.08" height="2.18"/><rect class="cls-6" x="31.27" y="36.19" width="37.62" height="28.74" rx="2.5"/><path class="cls-2" d="M68.89,39.24v-.55a2.5,2.5,0,0,0-2.5-2.5H33.77a2.5,2.5,0,0,0-2.5,2.5v.55Z"/><path class="cls-1" d="M66.63,37.71a.72.72,0,1,1-1.44,0,.72.72,0,0,1,1.44,0Z"/><path class="cls-1" d="M64.66,37.71a.72.72,0,1,1-.72-.71A.72.72,0,0,1,64.66,37.71Z"/><path class="cls-1" d="M62.67,37.71A.72.72,0,1,1,62,37,.71.71,0,0,1,62.67,37.71Z"/><rect class="cls-8" x="31.27" y="39.19" width="37.62" height="4.3"/><rect class="cls-9" x="31.27" y="43.49" width="37.62" height="1.35"/><rect class="cls-7" x="33.04" y="42.87" width="4.27" height="1.41"/><rect class="cls-7" x="39.04" y="42.87" width="4.27" height="1.41"/><rect class="cls-7" x="45.05" y="42.87" width="4.27" height="1.41"/><rect class="cls-7" x="51.05" y="42.87" width="4.27" height="1.41"/><rect class="cls-7" x="57.05" y="42.87" width="4.27" height="1.41"/><rect class="cls-7" x="63.06" y="42.87" width="4.27" height="1.41"/><rect class="cls-7" x="31.27" y="44.85" width="37.62" height="7.4"/><rect class="cls-4" x="53.06" y="45.62" width="10.18" height="8.63"/><rect class="cls-3" x="53.26" y="55.36" width="9.98" height="0.91"/><rect class="cls-3" x="53.26" y="57.36" width="9.98" height="0.91"/><rect class="cls-3" x="53.26" y="59.46" width="9.98" height="0.91"/><rect class="cls-3" x="53.26" y="61.42" width="9.98" height="0.91"/><rect class="cls-3" x="36.06" y="55.36" width="9.98" height="0.91"/><rect class="cls-3" x="36.06" y="57.36" width="9.98" height="0.91"/><rect class="cls-3" x="36.06" y="59.46" width="9.98" height="0.91"/><rect class="cls-3" x="36.06" y="61.42" width="9.98" height="0.91"/><rect class="cls-2" y="45.23" width="28.05" height="21.43" rx="1.87"/><path class="cls-4" d="M28.05,47.5v-.4a1.87,1.87,0,0,0-1.87-1.87H1.87A1.87,1.87,0,0,0,0,47.1v.4Z"/><path class="cls-1" d="M5.24,46.37a.54.54,0,1,1-.53-.54A.53.53,0,0,1,5.24,46.37Z"/><path class="cls-1" d="M3.78,46.37a.54.54,0,1,1-.54-.54A.54.54,0,0,1,3.78,46.37Z"/><path class="cls-1" d="M2.3,46.37a.54.54,0,0,1-.54.53.54.54,0,1,1,.54-.53Z"/><rect class="cls-6" y="48.87" width="28.05" height="1.01"/><rect class="cls-7" x="1.32" y="48.41" width="3.18" height="1.05"/><rect class="cls-7" x="5.79" y="48.41" width="3.18" height="1.05"/><rect class="cls-7" x="10.27" y="48.41" width="3.18" height="1.05"/><rect class="cls-7" x="14.75" y="48.41" width="3.18" height="1.05"/><rect class="cls-7" x="19.22" y="48.41" width="3.18" height="1.05"/><rect class="cls-7" x="23.7" y="48.41" width="3.18" height="1.05"/><polygon class="cls-7" points="14.23 59.52 13.61 59.52 8.74 59.52 8.74 60.2 13.61 60.2 14.23 60.2 19.09 60.2 19.09 59.52 14.23 59.52"/><polygon class="cls-7" points="13.61 61.02 8.74 61.02 8.74 61.7 13.61 61.7 14.23 61.7 19.09 61.7 19.09 61.02 14.23 61.02 13.61 61.02"/><polygon class="cls-7" points="13.61 62.58 8.74 62.58 8.74 63.26 13.61 63.26 14.23 63.26 19.09 63.26 19.09 62.58 14.23 62.58 13.61 62.58"/><polygon class="cls-7" points="13.61 64.04 8.74 64.04 8.74 64.72 13.61 64.72 14.23 64.72 19.09 64.72 19.09 64.04 14.23 64.04 13.61 64.04"/><rect class="cls-7" x="8.95" y="52.56" width="10.11" height="5.79"/><path class="cls-10" d="M39.46,19.27a2.78,2.78,0,1,1-2.8-2.76A2.78,2.78,0,0,1,39.46,19.27Z"/><path class="cls-10" d="M39.46,19.27a2.78,2.78,0,1,1-2.8-2.76A2.78,2.78,0,0,1,39.46,19.27Z"/><path class="cls-10" d="M73.32,28a2.78,2.78,0,1,1-2.8-2.76A2.78,2.78,0,0,1,73.32,28Z"/><rect class="cls-10" x="52.91" y="6.11" width="1.39" height="34.93" transform="translate(17.58 69.75) rotate(-75.77)"/><path class="cls-10" d="M26.15,25.93a2.78,2.78,0,1,1-.68-3.87A2.78,2.78,0,0,1,26.15,25.93Z"/><path class="cls-10" d="M26.15,25.93a2.78,2.78,0,1,1-.68-3.87A2.78,2.78,0,0,1,26.15,25.93Z"/><path class="cls-10" d="M48.7,52.64A2.78,2.78,0,1,1,48,48.77,2.78,2.78,0,0,1,48.7,52.64Z"/><rect class="cls-10" x="34.48" y="20.18" width="1.39" height="34.93" transform="translate(-16 31.72) rotate(-40.33)"/><path class="cls-10" d="M12.05,28.35a2.78,2.78,0,1,1,1.67-3.55A2.78,2.78,0,0,1,12.05,28.35Z"/><path class="cls-10" d="M12.05,28.35a2.78,2.78,0,1,1,1.67-3.55A2.78,2.78,0,0,1,12.05,28.35Z"/><path class="cls-10" d="M15.1,63.18a2.78,2.78,0,1,1,1.67-3.56A2.78,2.78,0,0,1,15.1,63.18Z"/><rect class="cls-10" x="11.99" y="25.67" width="1.39" height="34.93" transform="translate(-3.84 1.32) rotate(-5.17)"/></g></g></svg>