<svg xmlns="http://www.w3.org/2000/svg" viewBox="0 0 62.12 78.01"><defs><style>.cls-1{isolation:isolate;}.cls-2{fill:#dc4437;}.cls-3{fill:#e6e6e6;}.cls-4{fill:#999;}.cls-5{fill:#6ea89b;}.cls-6{fill:#77a7fb;}.cls-7{fill:#4d4d4d;}.cls-8{fill:#ccc;}.cls-9{fill:#b3b3b3;}.cls-10{fill:#f2f2f2;}.cls-11{fill:#666;}.cls-12{fill:#fff;}</style></defs><g id="Слой_2" data-name="Слой 2"><g id="Layer"><g class="cls-1"><rect class="cls-2" x="2.92" y="20.06" width="55.96" height="41.93" rx="3.69"/><path class="cls-3" d="M2.92,58.31A3.7,3.7,0,0,0,6.61,62H55.19a3.7,3.7,0,0,0,3.69-3.69V23.8h-56Z"/><rect class="cls-4" x="33.3" y="50.76" width="0.82" height="0.54"/><rect class="cls-4" x="33.29" y="47.97" width="0.82" height="0.54"/><rect class="cls-4" x="33.29" y="47.03" width="0.82" height="0.54"/><rect class="cls-4" x="33.29" y="46.08" width="0.82" height="0.54"/><rect class="cls-4" x="33.29" y="45.13" width="0.82" height="0.54"/><rect class="cls-4" x="33.29" y="44.18" width="0.82" height="0.54"/><rect class="cls-4" x="33.29" y="43.23" width="0.82" height="0.54"/><rect class="cls-4" x="33.29" y="42.29" width="0.82" height="0.54"/><rect class="cls-4" x="33.29" y="41.34" width="0.82" height="0.54"/><rect class="cls-4" x="33.29" y="40.39" width="0.82" height="0.54"/><rect class="cls-4" x="33.29" y="39.44" width="0.82" height="0.54"/><rect class="cls-4" x="33.29" y="38.49" width="0.82" height="0.54"/><rect class="cls-4" x="33.29" y="37.55" width="0.82" height="0.54"/><rect class="cls-4" x="33.29" y="36.6" width="0.82" height="0.54"/><rect class="cls-4" x="33.29" y="35.65" width="0.82" height="0.54"/><rect class="cls-4" x="33.29" y="34.7" width="0.82" height="0.54"/><rect class="cls-4" x="33.29" y="33.75" width="0.82" height="0.54"/><rect class="cls-4" x="33.29" y="32.81" width="0.82" height="0.54"/><rect class="cls-4" x="33.29" y="31.86" width="0.82" height="0.54"/><rect class="cls-4" x="33.29" y="30.91" width="0.82" height="0.54"/><rect class="cls-4" x="33.29" y="29.96" width="0.82" height="0.54"/><rect class="cls-4" x="33.29" y="29.02" width="0.82" height="0.54"/><rect class="cls-4" x="33.29" y="28.07" width="0.82" height="0.54"/><rect class="cls-4" x="33.29" y="27.12" width="0.82" height="0.54"/><rect class="cls-4" x="33.3" y="52.56" width="0.82" height="0.54"/><rect class="cls-4" x="33.3" y="53.49" width="0.82" height="0.54"/><rect class="cls-4" x="33.3" y="54.56" width="0.82" height="0.54"/><rect class="cls-4" x="35.27" y="29.01" width="5.44" height="0.55"/><rect class="cls-5" x="35.27" y="29.94" width="5.44" height="0.55"/><rect class="cls-5" x="35.27" y="30.78" width="5.44" height="0.55"/><rect class="cls-5" x="35.27" y="32.78" width="5.44" height="0.55"/><rect class="cls-5" x="35.27" y="33.76" width="5.44" height="0.55"/><rect class="cls-5" x="35.27" y="34.73" width="5.44" height="0.55"/><rect class="cls-5" x="35.27" y="35.57" width="5.44" height="0.55"/><rect class="cls-5" x="35.27" y="36.56" width="5.44" height="0.55"/><rect class="cls-5" x="35.27" y="37.5" width="5.44" height="0.55"/><rect class="cls-5" x="35.27" y="38.52" width="5.44" height="0.55"/><rect class="cls-5" x="35.27" y="39.5" width="5.44" height="0.55"/><rect class="cls-4" x="34.54" y="41.21" width="4.01" height="0.55"/><rect class="cls-4" x="34.54" y="43.03" width="7.39" height="0.55"/><rect class="cls-4" x="34.54" y="54.55" width="7.39" height="0.55"/><rect class="cls-4" x="34.54" y="46.04" width="10.73" height="0.55"/><rect class="cls-6" x="34.54" y="44.14" width="2.58" height="0.55"/><rect class="cls-6" x="34.54" y="46.86" width="4.23" height="0.55"/><rect class="cls-6" x="34.54" y="47.82" width="2.11" height="0.55"/><rect class="cls-6" x="34.54" y="50.75" width="2.41" height="0.55"/><rect class="cls-6" x="45.2" y="47.82" width="2.12" height="0.55"/><rect class="cls-6" x="46.63" y="48.74" width="3.33" height="0.55"/><rect class="cls-6" x="44.97" y="50.75" width="2.58" height="0.55"/><rect class="cls-6" x="55.06" y="47.82" width="2.12" height="0.55"/><rect class="cls-7" x="39.02" y="46.86" width="12.34" height="0.55"/><rect class="cls-7" x="37.1" y="47.82" width="7.83" height="0.55"/><rect class="cls-7" x="37.1" y="50.75" width="7.54" height="0.55"/><rect class="cls-7" x="34.54" y="51.68" width="7.24" height="0.55"/><rect class="cls-7" x="50.48" y="48.74" width="4.58" height="0.55"/><rect class="cls-7" x="47.88" y="50.75" width="9.52" height="0.55"/><rect class="cls-7" x="34.54" y="49.67" width="2.91" height="0.55"/><rect class="cls-7" x="34.54" y="48.74" width="11.7" height="0.55"/><rect class="cls-7" x="47.69" y="47.82" width="6.96" height="0.55"/><rect class="cls-7" x="37.47" y="44.14" width="6.15" height="0.55"/><rect class="cls-4" x="5.26" y="50.56" width="0.82" height="0.54"/><rect class="cls-4" x="5.25" y="47.87" width="0.82" height="0.54"/><rect class="cls-4" x="5.25" y="46.92" width="0.82" height="0.54"/><rect class="cls-4" x="5.25" y="45.98" width="0.82" height="0.54"/><rect class="cls-4" x="5.25" y="44.08" width="0.82" height="0.54"/><rect class="cls-4" x="5.25" y="43.13" width="0.82" height="0.54"/><rect class="cls-4" x="5.25" y="42.19" width="0.82" height="0.54"/><rect class="cls-4" x="5.25" y="40.29" width="0.82" height="0.54"/><rect class="cls-4" x="5.25" y="39.34" width="0.82" height="0.54"/><rect class="cls-4" x="5.25" y="38.39" width="0.82" height="0.54"/><rect class="cls-4" x="5.25" y="37.45" width="0.82" height="0.54"/><rect class="cls-4" x="5.25" y="36.5" width="0.82" height="0.54"/><rect class="cls-4" x="5.25" y="35.55" width="0.82" height="0.54"/><rect class="cls-4" x="5.25" y="34.6" width="0.82" height="0.54"/><rect class="cls-4" x="5.25" y="33.65" width="0.82" height="0.54"/><rect class="cls-4" x="5.25" y="32.71" width="0.82" height="0.54"/><rect class="cls-4" x="5.25" y="31.76" width="0.82" height="0.54"/><rect class="cls-4" x="5.25" y="30.81" width="0.82" height="0.54"/><rect class="cls-4" x="5.25" y="29.86" width="0.82" height="0.54"/><rect class="cls-4" x="5.25" y="28.92" width="0.82" height="0.54"/><rect class="cls-4" x="5.25" y="27.02" width="0.82" height="0.54"/><rect class="cls-4" x="5.26" y="52.46" width="0.82" height="0.54"/><rect class="cls-4" x="5.26" y="53.39" width="0.82" height="0.54"/><rect class="cls-4" x="5.25" y="48.73" width="0.82" height="0.54"/><rect class="cls-4" x="5.26" y="49.64" width="0.82" height="0.54"/><rect class="cls-4" x="5.26" y="51.43" width="0.82" height="0.54"/><rect class="cls-6" x="6.34" y="27.02" width="8.76" height="0.54"/><rect class="cls-2" x="15.49" y="27.02" width="13.13" height="0.54"/><rect class="cls-2" x="7.64" y="28.92" width="20.73" height="0.54"/><rect class="cls-2" x="11.28" y="30.67" width="11.69" height="0.54"/><rect class="cls-2" x="6.36" y="27.88" width="1.28" height="0.54"/><rect class="cls-2" x="12.43" y="36.5" width="3.06" height="0.54"/><rect class="cls-2" x="12.2" y="52.46" width="0.87" height="0.54"/><rect class="cls-2" x="17.31" y="52.46" width="0.87" height="0.54"/><rect class="cls-6" x="6.34" y="30.67" width="4.76" height="0.54"/><rect class="cls-6" x="6.91" y="31.76" width="2.65" height="0.54"/><rect class="cls-6" x="7.39" y="32.71" width="5.03" height="0.54"/><rect class="cls-6" x="7.39" y="34.6" width="2.16" height="0.54"/><rect class="cls-7" x="10.01" y="34.6" width="15.46" height="0.54"/><rect class="cls-7" x="9.88" y="36.5" width="2.32" height="0.54"/><rect class="cls-7" x="6.63" y="38.33" width="3.07" height="0.54"/><rect class="cls-7" x="6.63" y="39.34" width="3.07" height="0.54"/><rect class="cls-7" x="6.7" y="40.25" width="3.07" height="0.54"/><rect class="cls-7" x="21.58" y="40.25" width="3.07" height="0.54"/><rect class="cls-7" x="6.63" y="42.19" width="3.07" height="0.54"/><rect class="cls-7" x="6.63" y="43.13" width="1.84" height="0.54"/><rect class="cls-7" x="6.63" y="44.08" width="2.93" height="0.54"/><rect class="cls-7" x="21.65" y="44.08" width="2.93" height="0.54"/><rect class="cls-7" x="6.52" y="45.98" width="2.93" height="0.54"/><rect class="cls-7" x="15.39" y="45.98" width="2.93" height="0.54"/><rect class="cls-7" x="6.52" y="46.92" width="1.62" height="0.54"/><rect class="cls-6" x="25.99" y="34.6" width="2.16" height="0.54"/><rect class="cls-6" x="10.26" y="38.33" width="2.16" height="0.54"/><rect class="cls-6" x="7.39" y="36.5" width="2.16" height="0.54"/><rect class="cls-6" x="16.66" y="40.25" width="4.24" height="0.54"/><rect class="cls-6" x="24.95" y="40.25" width="3.67" height="0.54"/><rect class="cls-6" x="16.66" y="44.08" width="4.41" height="0.54"/><rect class="cls-6" x="24.87" y="44.08" width="3.5" height="0.54"/><rect class="cls-5" x="12.94" y="38.33" width="3.06" height="0.54"/><rect class="cls-5" x="12.94" y="39.34" width="3.06" height="0.54"/><rect class="cls-5" x="12.94" y="40.25" width="3.06" height="0.54"/><rect class="cls-6" x="10.26" y="39.34" width="2.16" height="0.54"/><rect class="cls-6" x="10.26" y="40.25" width="2.16" height="0.54"/><rect class="cls-5" x="11.54" y="43.13" width="3.06" height="0.54"/><rect class="cls-5" x="12.68" y="42.04" width="3.06" height="0.54"/><rect class="cls-6" x="8.86" y="43.13" width="2.16" height="0.54"/><rect class="cls-5" x="12.88" y="44.08" width="3.06" height="0.54"/><rect class="cls-6" x="10.2" y="44.08" width="2.16" height="0.54"/><rect class="cls-5" x="11.15" y="46.92" width="3.06" height="0.54"/><rect class="cls-6" x="8.47" y="46.92" width="2.16" height="0.54"/><rect class="cls-6" x="10.2" y="45.98" width="4.61" height="0.54"/><rect class="cls-6" x="18.6" y="45.98" width="3.51" height="0.54"/><rect class="cls-6" x="7.39" y="48.73" width="3.24" height="0.54"/><rect class="cls-6" x="6.85" y="49.64" width="3.24" height="0.54"/><rect class="cls-6" x="6.85" y="51.43" width="3.24" height="0.54"/><rect class="cls-6" x="7.39" y="52.46" width="4.49" height="0.54"/><rect class="cls-6" x="13.49" y="52.46" width="3.58" height="0.54"/><rect class="cls-6" x="18.57" y="52.46" width="8.22" height="0.54"/><rect class="cls-6" x="10.26" y="42.04" width="2.16" height="0.54"/><rect class="cls-8" x="30.51" y="23.99" width="0.69" height="38.01"/><path class="cls-9" d="M8.22,22a.62.62,0,0,1-.62.62.62.62,0,0,1,0-1.24A.62.62,0,0,1,8.22,22Z"/><path class="cls-9" d="M9.81,22a.63.63,0,1,1-.62-.62A.62.62,0,0,1,9.81,22Z"/><path class="cls-9" d="M6.6,22A.62.62,0,1,1,6,21.34.62.62,0,0,1,6.6,22Z"/></g><path class="cls-10" d="M57.45,76.71h-.28l-6.34,0H48.91A4.62,4.62,0,0,1,44.31,72l0-4.47a4.65,4.65,0,0,1,1.93-3.74L36.44,44.74,48.12,63l2.78,0,6.35,0h.27a4.62,4.62,0,0,1,4.6,4.65l0,4.48A4.64,4.64,0,0,1,57.45,76.71Z"/><path class="cls-2" d="M42.22,54.63l5.68,8.84,3,0,6.35,0h.27a4.13,4.13,0,0,1,4.11,4.15l0,4.47a4.13,4.13,0,0,1-4.13,4.11h-.29l-6.35,0H48.91A4.13,4.13,0,0,1,44.8,72l0-4.47a4.14,4.14,0,0,1,1.72-3.33l.42-.3Zm-5.78-9.89L46.26,63.8a4.65,4.65,0,0,0-1.93,3.74l0,4.47a4.62,4.62,0,0,0,4.6,4.65h1.92l6.34,0h.3a4.63,4.63,0,0,0,4.63-4.6l0-4.48A4.62,4.62,0,0,0,57.52,63h-.27L50.9,63l-2.78,0Z"/><path class="cls-11" d="M50.52,73.6a2.68,2.68,0,0,1-1.25-.3.16.16,0,0,1,.15-.28,2.69,2.69,0,0,0,2.52-.09,5.37,5.37,0,0,0,2.29-2.31c1.13-2.13.83-4.53-.69-5.33a.16.16,0,0,1-.06-.21.15.15,0,0,1,.21-.07c1.67.89,2,3.47.81,5.76a5.75,5.75,0,0,1-2.42,2.44A3.56,3.56,0,0,1,50.52,73.6Z"/><path class="cls-11" d="M52.69,75.23h0a.16.16,0,0,1-.12-.18,17.94,17.94,0,0,1,1.63-4.33A18.83,18.83,0,0,1,56.85,67a.16.16,0,0,1,.22,0,.15.15,0,0,1,0,.22,17.33,17.33,0,0,0-2.63,3.69,18.55,18.55,0,0,0-1.61,4.24A.15.15,0,0,1,52.69,75.23Z"/><path class="cls-11" d="M55,67.69c1.3,1.16,1.85,2.71,1.23,3.86S54,73.11,52.34,72.67Z"/><path class="cls-2" d="M53.1,70.24l-1.22,2.29a6.56,6.56,0,0,1-.87-.38c-2-1.05-3-3-2.53-4.38Z"/><path class="cls-2" d="M54.62,67.39l-1.29,2.43-4.64-2.47c.84-1.34,3.1-1.56,5.14-.47A5.34,5.34,0,0,1,54.62,67.39Z"/><path class="cls-11" d="M56.38,70.18a1.28,1.28,0,1,0,.52,1.73A1.27,1.27,0,0,0,56.38,70.18Z"/><path class="cls-11" d="M55.4,74.88l-.07,0a3.38,3.38,0,0,1-1.45-4.56,3.26,3.26,0,0,1,2-1.61,3.39,3.39,0,0,1,2.59.27.16.16,0,0,1-.14.28A3.14,3.14,0,0,0,56,69a2.93,2.93,0,0,0-1.82,1.46,3.07,3.07,0,0,0,1.32,4.13.17.17,0,0,1,.07.22A.16.16,0,0,1,55.4,74.88Z"/><path class="cls-11" d="M56.84,72.68l-.07,0a.65.65,0,0,1-.33-.41.73.73,0,0,1,.06-.52.74.74,0,0,1,.4-.34.63.63,0,0,1,.52,0,.16.16,0,0,1,.07.21.14.14,0,0,1-.21.06.39.39,0,0,0-.28,0,.43.43,0,0,0-.22.2.37.37,0,0,0,.13.51.15.15,0,0,1,.07.21A.17.17,0,0,1,56.84,72.68Z"/><path class="cls-10" d="M15.05,0H25.18a5.49,5.49,0,0,1,5.49,5.49v5.3a5.47,5.47,0,0,1-2.27,4.44L36.12,29,25.62,16.28H15.05a5.49,5.49,0,0,1-5.49-5.49V5.49A5.49,5.49,0,0,1,15.05,0Z"/><path class="cls-11" d="M25.18.54a5,5,0,0,1,4.94,5v5.3a4.94,4.94,0,0,1-2,4l-.39.29.24.42L32.68,24,26,15.93l-.17-.19H15.05a5,5,0,0,1-4.94-5V5.49A5,5,0,0,1,15.05.54H25.18Zm0-.54H15.05A5.49,5.49,0,0,0,9.56,5.49v5.3a5.49,5.49,0,0,0,5.49,5.49H25.62L36.12,29,28.4,15.23a5.47,5.47,0,0,0,2.27-4.44V5.49A5.49,5.49,0,0,0,25.18,0Z"/><path class="cls-2" d="M16.07,3.52h1v8.61H16V9.72H13.38V8.62ZM16,8.62V6.05L14.64,8.62Z"/><path class="cls-2" d="M19.64,12.13a1.56,1.56,0,0,1-1.41-.75,3.16,3.16,0,0,1-.41-1.74V6a3,3,0,0,1,.41-1.72,1.71,1.71,0,0,1,2.82,0A3,3,0,0,1,21.47,6V9.64a3.11,3.11,0,0,1-.42,1.74A1.57,1.57,0,0,1,19.64,12.13Zm0-7.51-.19,0a.45.45,0,0,0-.24.15A1.11,1.11,0,0,0,19,5.2a2.6,2.6,0,0,0-.09.78V9.64a2.7,2.7,0,0,0,.09.8,1,1,0,0,0,.21.41.41.41,0,0,0,.24.16l.19,0,.19,0a.48.48,0,0,0,.24-.16.92.92,0,0,0,.2-.41,2.7,2.7,0,0,0,.09-.8V6a2.6,2.6,0,0,0-.09-.78,1,1,0,0,0-.2-.41.53.53,0,0,0-.24-.15Z"/><path class="cls-2" d="M24.89,3.52h1v8.61H24.8V9.72H22.21V8.62Zm-.09,5.1V6.05L23.47,8.62Z"/><path class="cls-2" d="M22.24,63.86H15L22.83,39,10.5,63.86H4.77A4.78,4.78,0,0,0,0,68.63v4.62A4.77,4.77,0,0,0,4.77,78H22.24A4.76,4.76,0,0,0,27,73.25V68.63A4.77,4.77,0,0,0,22.24,63.86Z"/><path class="cls-10" d="M19.93,45.92,14.62,63.54l-.3.83h7.92a4.26,4.26,0,0,1,4.26,4.26v4.62a4.26,4.26,0,0,1-4.26,4.25H4.77A4.26,4.26,0,0,1,.51,73.25V68.63a4.26,4.26,0,0,1,4.26-4.26h5.94l.15-.14Zm2.9-7L10.5,63.86H4.77A4.78,4.78,0,0,0,0,68.63v4.62A4.77,4.77,0,0,0,4.77,78H22.24A4.76,4.76,0,0,0,27,73.25V68.63a4.77,4.77,0,0,0-4.77-4.77H15Z"/><path class="cls-12" d="M3,66.74V70.6H5.85V71H3v3.88H5.85v.41H2.63v-9H5.85v.41Z"/><path class="cls-12" d="M9.79,71.21a2.08,2.08,0,0,1,.6,1.58v2.49H10V72.79a1.66,1.66,0,0,0-.44-1.25,1.64,1.64,0,0,0-1.24-.45H7.09v4.19H6.67v-9H8.28a2,2,0,0,1,1.58.58,2.75,2.75,0,0,1,.5,1.81,2.72,2.72,0,0,1-.49,1.78,1.67,1.67,0,0,1-.53.41A1.76,1.76,0,0,1,9.79,71.21Zm-1.51-.54a1.57,1.57,0,0,0,1.27-.46,3.08,3.08,0,0,0,0-3,1.6,1.6,0,0,0-1.28-.45H7.09v3.93H8.28Z"/><path class="cls-12" d="M14.42,71.21a2.08,2.08,0,0,1,.6,1.58v2.49h-.43V72.79a1.66,1.66,0,0,0-.44-1.25,1.63,1.63,0,0,0-1.23-.45h-1.2v4.19h-.41v-9h1.61a2,2,0,0,1,1.57.58,3.5,3.5,0,0,1,0,3.59,1.67,1.67,0,0,1-.53.41A1.6,1.6,0,0,1,14.42,71.21Zm-1.5-.54a1.56,1.56,0,0,0,1.26-.46,3.08,3.08,0,0,0,0-3,1.58,1.58,0,0,0-1.27-.45h-1.2v3.93h1.2Z"/><path class="cls-12" d="M17.83,75.3a2.25,2.25,0,0,1-.66-.1,1.41,1.41,0,0,1-.62-.36,1.71,1.71,0,0,1-.45-.72,3.42,3.42,0,0,1-.17-1.21V68.7a2.86,2.86,0,0,1,.46-1.76,1.74,1.74,0,0,1,1.44-.61,1.71,1.71,0,0,1,1.44.61,2.76,2.76,0,0,1,.48,1.76v4.21a3.39,3.39,0,0,1-.18,1.21,1.71,1.71,0,0,1-.45.72,1.41,1.41,0,0,1-.62.36A2.27,2.27,0,0,1,17.83,75.3Zm0-8.56a1.29,1.29,0,0,0-1.11.46,2.47,2.47,0,0,0-.38,1.5v4.21a2.48,2.48,0,0,0,.38,1.51,1.32,1.32,0,0,0,1.11.47A1.38,1.38,0,0,0,19,74.42a2.41,2.41,0,0,0,.37-1.51V68.7A2.4,2.4,0,0,0,19,67.2,1.35,1.35,0,0,0,17.83,66.74Z"/><path class="cls-12" d="M23.79,71.21a2.08,2.08,0,0,1,.6,1.58v2.49H24V72.79a1.7,1.7,0,0,0-.43-1.25,1.67,1.67,0,0,0-1.24-.45h-1.2v4.19h-.41v-9h1.61a2,2,0,0,1,1.57.58,3.5,3.5,0,0,1,0,3.59,1.67,1.67,0,0,1-.53.41A1.6,1.6,0,0,1,23.79,71.21Zm-1.5-.54a1.56,1.56,0,0,0,1.26-.46A2.31,2.31,0,0,0,24,68.7a2.37,2.37,0,0,0-.38-1.51,1.62,1.62,0,0,0-1.28-.45h-1.2v3.93h1.2Z"/></g></g></svg>