<svg xmlns="http://www.w3.org/2000/svg" viewBox="0 0 78.63 57.46"><defs><style>.cls-1{isolation:isolate;}.cls-2{fill:#fff;}.cls-3{fill:#e6e6e6;}.cls-14,.cls-3{mix-blend-mode:multiply;}.cls-4{fill:#f2f2f2;}.cls-5{fill:#333;}.cls-6{fill:#4d4d4d;}.cls-7{fill:#439cd9;}.cls-8{fill:#64aad9;}.cls-9{fill:#dc4437;}.cls-10{fill:#dc5e54;}.cls-11{fill:#f5b400;}.cls-12{fill:#f5c94e;}.cls-13{fill:#b8392e;}.cls-14{fill:#ffe167;}.cls-15{fill:#e49306;}.cls-16{fill:#ffcb4a;}</style></defs><g class="cls-1"><g id="Слой_2" data-name="Слой 2"><g id="Layer"><rect class="cls-2" x="15.52" y="26.4" width="53.59" height="31.06"/><rect class="cls-3" x="30.21" y="26.4" width="38.9" height="31.06"/><rect class="cls-3" x="15.52" y="26.4" width="1.97" height="31.06"/><rect class="cls-3" x="42.84" y="26.4" width="26.28" height="31.06"/><path class="cls-4" d="M41.89,0A26.8,26.8,0,1,1,15.53,27.22,26.8,26.8,0,0,1,41.89,0Z"/><path class="cls-2" d="M41.46,2.68a24.13,24.13,0,1,1-23.25,25A24.13,24.13,0,0,1,41.46,2.68Z"/><path class="cls-5" d="M41,5.36A21.47,21.47,0,1,1,20.88,28.08,21.47,21.47,0,0,1,41,5.36Z"/><path class="cls-6" d="M40.61,8a18.83,18.83,0,1,1-17,20.47A18.84,18.84,0,0,1,40.61,8Z"/><path class="cls-7" d="M40.18,10.72A16.22,16.22,0,1,1,26.24,28.93,16.21,16.21,0,0,1,40.18,10.72Z"/><path class="cls-8" d="M39.75,13.4a13.64,13.64,0,1,1-10.83,16A13.63,13.63,0,0,1,39.75,13.4Z"/><path class="cls-9" d="M39.32,16.08A11.13,11.13,0,1,1,31.6,29.79,11.14,11.14,0,0,1,39.32,16.08Z"/><path class="cls-10" d="M38.9,18.76a8.73,8.73,0,1,1-4.62,11.46A8.74,8.74,0,0,1,38.9,18.76Z"/><path class="cls-11" d="M38.47,21.44A6.6,6.6,0,1,1,37,30.64,6.6,6.6,0,0,1,38.47,21.44Z"/><path class="cls-12" d="M47,26.8a4.71,4.71,0,1,1-4.7-4.71A4.7,4.7,0,0,1,47,26.8Z"/><polygon class="cls-3" points="66 39.42 42.5 28.94 43.29 25.55 67.42 36.31 66 39.42"/><path class="cls-3" d="M58.62,48.06,36.13,37.86v3.41l19.16,9A27.31,27.31,0,0,0,58.62,48.06Z"/><polygon class="cls-13" points="71.87 10.35 74.09 6.79 74.82 7.27 74.76 15.09 68.56 17.1 71.87 10.35"/><polygon class="cls-9" points="63.92 12.37 74.09 6.79 73.99 15.43 61.15 19.5 63.92 12.37"/><polygon class="cls-11" points="76.6 17.93 42.5 28.94 42.5 25.53 65.22 18.18 75.59 14.82 76.6 17.93"/><polygon class="cls-14" points="76.6 17.93 42.5 28.94 42.5 26.63 75.92 15.82 76.6 17.93"/><polygon class="cls-14" points="76.6 17.93 42.5 28.94 42.5 28.09 76.35 17.16 76.6 17.93"/><path class="cls-15" d="M74.93,16.76c.28.86,1,1.4,1.59,1.2s.85-1.05.58-1.9-1-1.4-1.59-1.21S74.65,15.9,74.93,16.76Z"/><polygon class="cls-13" points="70.9 26.23 78.06 26.9 78.63 26.4 75.38 18.42 74.28 17.82 70.9 26.23"/><polygon class="cls-9" points="66.71 26.9 78.06 26.9 74.28 17.82 61.6 21.88 66.71 26.9"/><polygon class="cls-9" points="6.75 22.69 4.54 19.12 3.81 19.6 3.87 27.42 10.06 29.43 6.75 22.69"/><polygon class="cls-13" points="14.71 24.7 4.54 19.12 4.63 27.76 17.48 31.83 14.71 24.7"/><polygon class="cls-11" points="2.03 30.27 36.13 41.27 36.13 37.86 13.41 30.51 3.04 27.16 2.03 30.27"/><polygon class="cls-14" points="2.03 30.27 36.13 41.27 36.13 38.38 3.06 27.62 2.03 30.27"/><polygon class="cls-14" points="2.23 30.33 36.13 41.27 36.13 39 3.44 28.37 2.23 30.33"/><path class="cls-16" d="M3.7,29.09c-.28.86-1,1.4-1.59,1.21s-.86-1.05-.58-1.91,1-1.4,1.59-1.21S4,28.23,3.7,29.09Z"/><polygon class="cls-9" points="7.73 38.56 0.56 39.24 0 38.73 3.25 30.75 4.35 30.16 7.73 38.56"/><polygon class="cls-13" points="11.92 39.24 0.56 39.24 4.35 30.16 17.02 34.21 11.92 39.24"/></g></g></g></svg>