<svg xmlns="http://www.w3.org/2000/svg" xmlns:xlink="http://www.w3.org/1999/xlink" viewBox="0 0 50.06 80.73"><defs><style>.cls-1{isolation:isolate;}.cls-18,.cls-2{fill:#b3b3b3;}.cls-3{fill:#f2f2f2;}.cls-4{fill:#2c2926;}.cls-5{fill:#333;}.cls-18,.cls-19,.cls-5,.cls-9{mix-blend-mode:screen;}.cls-17,.cls-6{fill:gray;}.cls-11,.cls-15,.cls-6{mix-blend-mode:multiply;}.cls-7{fill:#59abe3;}.cls-8{fill:#1a1a1a;}.cls-9{fill:url(#linear-gradient);}.cls-10{fill:#ffc675;}.cls-11{fill:#edcca6;}.cls-12{fill:#64b044;}.cls-13{fill:#5f9653;}.cls-14{fill:#fbcb43;}.cls-15{fill:#ede0d1;}.cls-16{fill:#ccc;}.cls-19{fill:url(#linear-gradient-2);}</style><linearGradient id="linear-gradient" x1="47.74" y1="29.48" x2="21.18" y2="4.84" gradientUnits="userSpaceOnUse"><stop offset="0" stop-color="#ccc"/><stop offset="0.82"/></linearGradient><linearGradient id="linear-gradient-2" x1="21.89" y1="43.65" x2="-0.91" y2="22.5" gradientUnits="userSpaceOnUse"><stop offset="0" stop-color="#ccc"/><stop offset="0.84"/></linearGradient></defs><g class="cls-1"><g id="Слой_2" data-name="Слой 2"><g id="Layer"><path class="cls-2" d="M48.33,0H26.39a1.92,1.92,0,0,0-1.74,2.05V35.77a1.92,1.92,0,0,0,1.74,2H48.33a1.91,1.91,0,0,0,1.73-2V2.05A1.91,1.91,0,0,0,48.33,0Z"/><path class="cls-3" d="M47.69,0H25.75A1.91,1.91,0,0,0,24,2.05V35.77a1.91,1.91,0,0,0,1.73,2H47.69a1.92,1.92,0,0,0,1.74-2V2.05A1.92,1.92,0,0,0,47.69,0Z"/><path class="cls-4" d="M25.73,37.53a1.64,1.64,0,0,1-1.48-1.76V2.05A1.64,1.64,0,0,1,25.73.29H47.67a1.65,1.65,0,0,1,1.49,1.76V35.77a1.65,1.65,0,0,1-1.49,1.76Z"/><path class="cls-5" d="M37.78,34.37a1.13,1.13,0,0,1,.53,1v.11a1.14,1.14,0,0,1-1.13,1.13H36a1.09,1.09,0,0,1-.48-.11,1.11,1.11,0,0,0,.6.18h1.2a1.14,1.14,0,0,0,1.14-1.14v-.1A1.13,1.13,0,0,0,37.78,34.37Z"/><path class="cls-6" d="M35.13,35.61V35.5a1.14,1.14,0,0,1,1.14-1.13h1.19a1.09,1.09,0,0,1,.54.14,1.07,1.07,0,0,0-.7-.25H36.1A1.14,1.14,0,0,0,35,35.4v.1a1.14,1.14,0,0,0,.59,1A1.14,1.14,0,0,1,35.13,35.61Z"/><rect class="cls-7" x="25.18" y="4.02" width="23.05" height="29.29"/><path class="cls-4" d="M37,1.61a.32.32,0,0,1-.3.34.32.32,0,0,1-.3-.34.33.33,0,0,1,.3-.35A.32.32,0,0,1,37,1.61Z"/><path class="cls-8" d="M37.13,1.69a.43.43,0,1,1-.43-.43A.43.43,0,0,1,37.13,1.69Z"/><path class="cls-9" d="M24.25,35.13,45.86.29H25.73a1.64,1.64,0,0,0-1.48,1.76Z"/><path class="cls-10" d="M41.07,28.16a1.6,1.6,0,0,0-1.6,1.6v7.18l-.92.82,0-16.83a1.32,1.32,0,1,0-2.64,0v9.94h-.76V26.12a1.32,1.32,0,0,0-2.64,0v4.75h-1V27.19a1.32,1.32,0,0,0-2.64,0v3.67h-1a1.33,1.33,0,0,0-2.61,0v9.84L27.34,45V58.3h8.24V45l7.08-6.68v-8.6A1.6,1.6,0,0,0,41.07,28.16Z"/><path class="cls-11" d="M42.34,28.8a1.63,1.63,0,0,0-.59-.11,1.59,1.59,0,0,0-1.59,1.6v7.17L38.54,39l0-18.06a1.32,1.32,0,0,0-1.32-1.32h0a1.28,1.28,0,0,1,.85.32l-.2,0a1.32,1.32,0,0,0-1.32,1.32V30.9h-.66v0h-.72V26.14a1.32,1.32,0,0,0-1.32-1.32h0a1.27,1.27,0,0,1,.84.32.75.75,0,0,0-.21,0,1.32,1.32,0,0,0-1.32,1.32V30.9h-.65v0H31.6V27.21a1.32,1.32,0,0,0-1.32-1.32h0a1.41,1.41,0,0,1,.85.32l-.21,0a1.33,1.33,0,0,0-1.32,1.33V30.9h-.65v0h-1a1.32,1.32,0,0,0-1.25-1.07,1.31,1.31,0,0,0-.87,1.07h0v9.84L27,43.37h0L27.81,45v9.9h7.87l-.1-9.9,7.08-6.68v-8.6A1.6,1.6,0,0,0,42.34,28.8Z"/><path class="cls-12" d="M37.42,77.17V47.59H23.21V80.73A39.14,39.14,0,0,0,37.42,77.17Z"/><path class="cls-13" d="M37.44,77.15V48.41H35a1.11,1.11,0,0,0-1.1,1.11V78.59A37.29,37.29,0,0,0,37.44,77.15Z"/><path class="cls-14" d="M25,51a1.17,1.17,0,1,0,2.34,0A1.17,1.17,0,1,0,25,51Z"/><path class="cls-10" d="M13.69,51.22a1.63,1.63,0,0,0,1.07-.41l6.7-6.05v-8.6a1.6,1.6,0,1,0-3.19,0v7.18l-5.65,5.09a1.6,1.6,0,0,0,1.07,2.79Z"/><path class="cls-10" d="M16.05,43.21a1.32,1.32,0,0,0,1.32-1.32V27.33a1.32,1.32,0,0,0-2.64,0V41.89A1.32,1.32,0,0,0,16.05,43.21Z"/><path class="cls-15" d="M16.05,43.21a1.32,1.32,0,0,0,1.32-1.32V27.33a1.32,1.32,0,0,0-2.64,0V41.89A1.32,1.32,0,0,0,16.05,43.21Z"/><path class="cls-10" d="M16.72,42.19V27.63a1.33,1.33,0,0,0-1.32-1.32l-.21,0a1.3,1.3,0,0,1,.86-.32,1.32,1.32,0,0,1,1.32,1.32V41.89a1.31,1.31,0,0,1-1.11,1.3A1.32,1.32,0,0,0,16.72,42.19Z"/><path class="cls-10" d="M12.49,43.21a1.32,1.32,0,0,0,1.32-1.32V25.39a1.32,1.32,0,0,0-2.64,0v16.5A1.32,1.32,0,0,0,12.49,43.21Z"/><path class="cls-15" d="M12.49,43.21a1.32,1.32,0,0,0,1.32-1.32V25.39a1.32,1.32,0,0,0-2.64,0v16.5A1.32,1.32,0,0,0,12.49,43.21Z"/><path class="cls-10" d="M13.14,40.25V25.69a1.32,1.32,0,0,0-1.32-1.32.75.75,0,0,0-.21,0,1.35,1.35,0,0,1,.87-.32,1.33,1.33,0,0,1,1.32,1.32V40a1.33,1.33,0,0,1-1.12,1.3A1.28,1.28,0,0,0,13.14,40.25Z"/><path class="cls-10" d="M8.94,43.21a1.33,1.33,0,0,0,1.32-1.33l0-15.42a1.32,1.32,0,1,0-2.64,0l0,15.42A1.32,1.32,0,0,0,8.94,43.21Z"/><path class="cls-15" d="M8.94,43.21a1.33,1.33,0,0,0,1.32-1.33l0-15.42a1.32,1.32,0,1,0-2.64,0l0,15.42A1.32,1.32,0,0,0,8.94,43.21Z"/><path class="cls-10" d="M5.38,43.21A1.32,1.32,0,0,0,6.7,41.89V30.43a1.32,1.32,0,0,0-2.64,0V41.89A1.32,1.32,0,0,0,5.38,43.21Z"/><path class="cls-15" d="M5.38,43.21A1.32,1.32,0,0,0,6.7,41.89V30.43a1.32,1.32,0,0,0-2.64,0V41.89A1.32,1.32,0,0,0,5.38,43.21Z"/><path class="cls-10" d="M19.87,34.56a1.6,1.6,0,0,0-1.6,1.6v7.18l-.92.82V37.27H4.09V47.1l2.05,4.34V64.7h8.24V51.44l7.08-6.68v-8.6A1.6,1.6,0,0,0,19.87,34.56Z"/><path class="cls-10" d="M9.55,41.32V26.77a1.33,1.33,0,0,0-1.32-1.33l-.21,0a1.34,1.34,0,0,1,.86-.32,1.32,1.32,0,0,1,1.32,1.32V41a1.32,1.32,0,0,1-1.11,1.31A1.34,1.34,0,0,0,9.55,41.32Z"/><path class="cls-10" d="M6.05,45.29V30.73a1.32,1.32,0,0,0-1.32-1.32l-.21,0a1.3,1.3,0,0,1,.86-.32A1.32,1.32,0,0,1,6.7,30.43V45a1.32,1.32,0,0,1-1.11,1.3A1.32,1.32,0,0,0,6.05,45.29Z"/><path class="cls-11" d="M20.56,34.72l-.14-.06h0l-.09,0-.08,0h-.06l-.12,0h-.17a1.6,1.6,0,0,0-1.6,1.6v7.18l-1.49,1.34V37.27H4.09V47.1l1.24,2.66h0l.79,1.68v9.9h7.08l0-12.47s3.26-2.92,3.6-3.36l2.23-2V36.32a1.6,1.6,0,0,1,1.56-1.6Z"/><path class="cls-12" d="M16.22,80.54V54H2V76A39.2,39.2,0,0,0,16.22,80.54Z"/><path class="cls-13" d="M16.24,80.54V54.81H13.81a1.1,1.1,0,0,0-1.1,1.1V80C13.87,80.21,15.05,80.4,16.24,80.54Z"/><path class="cls-14" d="M3.75,57.35a1.17,1.17,0,1,0,2.34,0,1.17,1.17,0,1,0-2.34,0Z"/><path class="cls-10" d="M3.36,31.19a1.6,1.6,0,1,1-3.19,0,1.6,1.6,0,0,1,3.19,0Z"/><path class="cls-15" d="M1.76,29.6H1.58a1.58,1.58,0,0,1,.57,1.22A1.59,1.59,0,0,1,.74,32.42a1.6,1.6,0,1,0,1-2.82Z"/><path class="cls-10" d="M3.25,35.33a1.6,1.6,0,1,1-1.6-1.6A1.6,1.6,0,0,1,3.25,35.33Z"/><path class="cls-10" d="M3.25,39.29a1.6,1.6,0,1,1-3.19,0,1.6,1.6,0,0,1,3.19,0Z"/><path class="cls-10" d="M3.25,43A1.37,1.37,0,1,1,1.88,41.6,1.38,1.38,0,0,1,3.25,43Z"/><path class="cls-2" d="M16,17.26H4.56A1.62,1.62,0,0,0,3,18.9V46A1.63,1.63,0,0,0,4.56,47.6H16A1.61,1.61,0,0,0,17.53,46V18.9A1.6,1.6,0,0,0,16,17.26Z"/><path class="cls-3" d="M15.51,17.26H4.1A1.62,1.62,0,0,0,2.5,18.9V46A1.63,1.63,0,0,0,4.1,47.6H15.51A1.61,1.61,0,0,0,17.07,46V18.9A1.6,1.6,0,0,0,15.51,17.26Z"/><path class="cls-16" d="M4.1,47.35A1.38,1.38,0,0,1,2.74,46V18.9A1.38,1.38,0,0,1,4.1,17.5H15.51a1.36,1.36,0,0,1,1.32,1.4V46a1.36,1.36,0,0,1-1.32,1.4Z"/><rect class="cls-7" x="3.25" y="20.84" width="13.03" height="23.11"/><path class="cls-17" d="M11.67,18.3a.23.23,0,0,1-.23.23H8.09a.23.23,0,0,1-.23-.23.24.24,0,0,1,.23-.23h3.35A.23.23,0,0,1,11.67,18.3Z"/><path class="cls-6" d="M8,18.33a.22.22,0,0,1,.23-.22h3.38a.21.21,0,0,0-.12,0H8.09a.24.24,0,0,0-.23.23.24.24,0,0,0,.2.23A.24.24,0,0,1,8,18.33Z"/><path class="cls-17" d="M7.57,18.3a.23.23,0,0,1-.23.23h0a.23.23,0,0,1-.23-.23.23.23,0,0,1,.23-.23h0A.23.23,0,0,1,7.57,18.3Z"/><path class="cls-6" d="M7.12,18.36a.23.23,0,0,1,.23-.23H7.4a.28.28,0,0,1,.13,0,.23.23,0,0,0-.19-.1h0a.23.23,0,0,0-.23.23.23.23,0,0,0,.1.19A.2.2,0,0,1,7.12,18.36Z"/><path class="cls-17" d="M12.51,18.3a.22.22,0,0,1-.22.23h-.06A.23.23,0,0,1,12,18.3a.23.23,0,0,1,.23-.23h.06A.23.23,0,0,1,12.51,18.3Z"/><path class="cls-6" d="M12.08,18.34a.23.23,0,0,1,.23-.23h.11a.24.24,0,0,0-.13-.05h-.06a.23.23,0,0,0-.23.23.23.23,0,0,0,.18.22A.22.22,0,0,1,12.08,18.34Z"/><rect class="cls-2" x="8.05" y="44.52" width="3.47" height="2.38" rx="1.13"/><path class="cls-18" d="M10.87,44.63a1.15,1.15,0,0,1,.52,1v.11a1.13,1.13,0,0,1-1.13,1.13H9.06a1.13,1.13,0,0,1-.48-.11,1.07,1.07,0,0,0,.61.18h1.19a1.14,1.14,0,0,0,1.14-1.13v-.11A1.15,1.15,0,0,0,10.87,44.63Z"/><path class="cls-17" d="M8.21,45.87v-.1a1.14,1.14,0,0,1,1.14-1.14h1.19a1.12,1.12,0,0,1,.55.14,1.18,1.18,0,0,0-.71-.25H9.19a1.14,1.14,0,0,0-1.14,1.14v.11a1.11,1.11,0,0,0,.6,1A1.11,1.11,0,0,1,8.21,45.87Z"/><path class="cls-19" d="M3.16,47,16.78,26.23l0-7.33a1.36,1.36,0,0,0-1.32-1.4H4.1a1.38,1.38,0,0,0-1.36,1.4V46A1.39,1.39,0,0,0,3.16,47Z"/><path class="cls-10" d="M3.08,34.22l-.91-.4a1.63,1.63,0,0,0-2.06.93A1.6,1.6,0,0,0,1,36.82H1l.9.36a1.6,1.6,0,0,0,1.18-3Z"/><path class="cls-15" d="M3.37,34.39a1.58,1.58,0,0,1,0,1.28,1.61,1.61,0,0,1-2,.92l-.9-.36h0A1.51,1.51,0,0,1,.16,36a1.55,1.55,0,0,0,.84.79H1l.9.36a1.6,1.6,0,0,0,1.47-2.79Z"/><path class="cls-10" d="M4.16,38.59l-1.89-.77h0a1.67,1.67,0,0,0-2.12.88A1.6,1.6,0,0,0,1,40.77l2,.78a1.59,1.59,0,0,0,1.18-3Z"/><path class="cls-15" d="M4.3,38.66a1.59,1.59,0,0,1,.15,1.44,1.61,1.61,0,0,1-2,.91L.46,40.23l-.18-.09a1.51,1.51,0,0,0,.75.63l2,.78A1.59,1.59,0,0,0,4.3,38.66Z"/><path class="cls-10" d="M4.09,42.39l-1.64-.67h0a1.37,1.37,0,0,0-1,2.54l1.66.66h0a1.36,1.36,0,0,0,1-2.53Z"/><path class="cls-15" d="M4.32,42.51a1.36,1.36,0,0,1-1.64,2h0L1,43.83a1.3,1.3,0,0,1-.26-.14,1.37,1.37,0,0,0,.66.57l1.66.66h0a1.37,1.37,0,0,0,1.24-2.41Z"/></g></g></g></svg>