<svg xmlns="http://www.w3.org/2000/svg" viewBox="0 0 49.24 73.39"><defs><style>.cls-1{fill:#333;}.cls-2{fill:#e6e6e6;}.cls-3{fill:#b3b3b3;}.cls-4{fill:#fff;}.cls-5{fill:#439cd9;}</style></defs><g id="Слой_2" data-name="Слой 2"><g id="Layer"><path class="cls-1" d="M46,2H3.24C1.46,2,0,4.12,0,6.75V68.62c0,2.62,1.46,4.77,3.24,4.77H46c1.78,0,3.24-2.15,3.24-4.77V6.75C49.24,4.12,47.78,2,46,2Z"/><rect class="cls-2" x="3.24" y="3.78" width="42.48" height="66.56"/><rect class="cls-3" x="13.23" width="22.78" height="4.77"/><rect class="cls-4" x="15.11" y="1.79" width="19.02" height="4.34"/><rect class="cls-3" x="15.11" y="11.41" width="19.02" height="1.35"/><rect class="cls-3" x="4.6" y="16.31" width="34.21" height="1.35"/><rect class="cls-3" x="7.42" y="18.97" width="12.79" height="1.35"/><rect class="cls-3" x="4.58" y="21.62" width="24.91" height="1.35"/><rect class="cls-3" x="4.58" y="24.28" width="34.23" height="1.35"/><rect class="cls-3" x="7.42" y="26.93" width="31.39" height="1.35"/><rect class="cls-3" x="7.42" y="29.59" width="22.08" height="1.35"/><rect class="cls-3" x="39.51" y="29.59" width="5" height="1.35"/><rect class="cls-3" x="39.51" y="18.97" width="5" height="1.35"/><rect class="cls-3" x="4.56" y="32.24" width="34.25" height="1.35"/><rect class="cls-3" x="7.42" y="34.9" width="31.39" height="1.35"/><rect class="cls-3" x="7.42" y="37.55" width="37.16" height="1.35"/><rect class="cls-3" x="4.53" y="40.21" width="34.27" height="1.35"/><rect class="cls-3" x="7.42" y="42.86" width="37.15" height="1.35"/><rect class="cls-3" x="4.52" y="45.52" width="34.29" height="1.35"/><rect class="cls-3" x="7.42" y="48.18" width="31.39" height="1.35"/><rect class="cls-3" x="7.42" y="50.83" width="37.13" height="1.35"/><rect class="cls-3" x="4.5" y="53.49" width="40.04" height="1.35"/><rect class="cls-3" x="4.49" y="56.14" width="40.04" height="1.35"/><rect class="cls-3" x="7.42" y="61.45" width="31.39" height="1.35"/><rect class="cls-3" x="7.42" y="64.38" width="13.72" height="1.35"/><rect class="cls-3" x="19.74" y="8.95" width="9.75" height="1.35"/><rect class="cls-2" x="6.72" y="15.66" width="1.39" height="53.33"/><rect class="cls-2" x="38.11" y="15.66" width="1.4" height="53.33"/><polygon class="cls-5" points="42.11 20.33 39.92 17.92 40.49 17.4 41.9 18.95 43.22 16.14 43.93 16.48 42.11 20.33"/><polygon class="cls-5" points="42.11 30.95 39.92 28.54 40.49 28.02 41.9 29.57 43.22 26.77 43.93 27.1 42.11 30.95"/><polygon class="cls-5" points="42.11 39.05 39.92 36.64 40.49 36.12 41.9 37.67 43.22 34.87 43.93 35.2 42.11 39.05"/></g></g></svg>