<svg xmlns="http://www.w3.org/2000/svg" viewBox="0 0 552.56 519.14"><defs><style>.cls-1{fill:#9cbf45;}.cls-2{fill:#231f20;}.cls-3{fill:#60423e;}.cls-4{fill:#382624;}.cls-5{fill:#ffa912;}.cls-6{fill:#f2881d;}.cls-7{fill:#ffb845;}.cls-8{fill:#fcd8be;}.cls-9{fill:#efc8ac;}.cls-10{fill:#f7e9e2;}.cls-11{fill:#e08119;}.cls-12{fill:#a9d84c;}.cls-13{fill:#fff;}</style></defs><g id="Слой_2" data-name="Слой 2"><g id="Layer_2" data-name="Layer 2"><path class="cls-1" d="M519.07,519.14a25.42,25.42,0,0,0,.4-6.16,89.86,89.86,0,0,1,22-.75,19.16,19.16,0,0,0-2.93-7.45q7.08-1.33,14-3.19a36.39,36.39,0,0,0-19.22-5.4,73.9,73.9,0,0,0-20,2.87,20.61,20.61,0,0,0-7,2.86,7.59,7.59,0,0,0-3.39,6.41C503.57,515.3,514.27,516.41,519.07,519.14Z"/><path class="cls-2" d="M357.11,346.78q1.71-12.54,3.41-25.08c.42-3.14.68-6.35,2.1-9.23,1-2.11,2.78-4.48,5.41-3.58l-.87-1.14q1.32,27.71,2.63,55.4.65,13.86,1.31,27.71c.42,8.8.9,17.61,2,26.36,2,15.7,6.22,31.44,15.26,44.65a61.76,61.76,0,0,0,15.27,15.7,76.76,76.76,0,0,0,21,10,219.81,219.81,0,0,0,23.07,5.65l27.06,5.54,6.85,1.4c1.49.31,2.13-2,.63-2.28l-26.93-5.51c-7.87-1.61-15.78-3.12-23.54-5.19a91.84,91.84,0,0,1-21.63-8.32,57.9,57.9,0,0,1-17-14.43c-9.67-12.09-14.57-27.25-17-42.35a245.27,245.27,0,0,1-2.48-26.22c-.48-8.92-.86-17.83-1.28-26.75q-1.31-27.33-2.59-54.65c-.11-2.24-.21-4.47-.32-6.71a1.22,1.22,0,0,0-.87-1.14c-6.52-2.24-9.39,6.8-10,11.51q-1.89,14-3.8,28c-.21,1.49,2.08,2.13,2.28.63Z"/><path class="cls-3" d="M294.83,472c-1.31,0-5.6.54-7,3.09-.55,1-1.18,2.54-.54,3.81-1.46,1.51-.22,4.61.24,5.06,1.16,1.13,1.07,1,3.31,1.14-.6.33-.13,3.32,1.72,4.34,3.35,1.85,8.76.48,12.43-.62,6-1.8,6.59-5.51,7.07-8.05a20.62,20.62,0,0,0-.35-7.7,9.82,9.82,0,0,0-2.08-5,6.3,6.3,0,0,0-4.83-1.86c-2.11.08-7.71-1.32-7.61.9C297.25,468.29,298.55,471.87,294.83,472Z"/><path class="cls-3" d="M297.52,476.4a6.47,6.47,0,0,0,.58,3.06c.94,1.61,3,2.06,4.87,2.34a9.69,9.69,0,0,0,5-.13,6.44,6.44,0,0,0,3.48-4.07,18.62,18.62,0,0,0,.68-5.47c.3-15.35-.38-30.74,1.2-46,.37-3.58.78-7.51-1.24-10.49-1.54-2.27-4.21-3.5-6.85-4.26-3-.86-6.26-1.23-9.09,0-7.71,3.39-2.88,15.64-2.06,21.67q1.89,13.86,2.77,27.83Q297.35,468.62,297.52,476.4Z"/><path class="cls-4" d="M290.85,485.14a4.89,4.89,0,0,1,2.57-4.06,15.16,15.16,0,0,1,3.81-1.31,6.89,6.89,0,0,0-5.25.66,6.21,6.21,0,0,0-3,4.56l1.91.15Z"/><path class="cls-4" d="M287.3,478.94a7.86,7.86,0,0,1,2.39-1.89A17.26,17.26,0,0,1,294,476a13.34,13.34,0,0,0-3.61.07,6.64,6.64,0,0,0-3.37,1.55,2.55,2.55,0,0,0,.09.78,2.16,2.16,0,0,0,.18.54Z"/><path class="cls-5" d="M316.78,228c8.85,22.48,15.21,46.22,28.09,66.65,1.16,1.83,2.41,3.8,2.29,6-.14,2.8-2.58,5-5.15,6.11a15.74,15.74,0,0,1-14.15-.89c-5.69-3.39-8.56-9.92-11.08-16Q308,268.42,299.19,247.1c-3.38-8.18-17.13-34.32-8.54-41.81C302.35,195.09,313.9,220.64,316.78,228Z"/><path class="cls-6" d="M311.23,228.26c-2.34-5.95-10.4-23.92-19.61-25-6.3,8.71,6.34,32.85,9.56,40.66q8.81,21.32,17.6,42.64c2.52,6.12,5.26,16.78,10.94,20.17,3,1.78,8.46,1.66,11.9,1.22,1-1.05-.08-5.65,0-7.09.11-2.16-1.14-4.12-2.29-5.95C326.43,274.48,320.08,250.73,311.23,228.26Z"/><path class="cls-5" d="M184.05,257c-13.45,13.51-17.61,20.1-23.6,31.46L150.5,307.3l-9.78-6.25a364.48,364.48,0,0,1,8.21-41c3.54-13.55,10.69-23.61,19.35-34.62,5.95-7.54,21.16-17.68,28.52-20s3.25,1.43,9.33,6.19C230.44,230.63,198,243,184.05,257Z"/><path class="cls-3" d="M156.72,322.4a26.89,26.89,0,0,1,2.65,3.67,5,5,0,0,1,.31,4.37,2.82,2.82,0,0,1-3.8,1.31,4.85,4.85,0,0,1-.06,6.43c-1.7,1.63-5.06,1.12-5.89-1.09a2.87,2.87,0,0,1-2.59,2.79,4.55,4.55,0,0,1-3.73-1.56,11.91,11.91,0,0,1-2.12-3.59c-2.93-6.88-4.65-14.41-3.9-21.85a54.1,54.1,0,0,1,3.79-14.72c3.24-5.86,9.29-3.78,11.27-1.34,1.41,1.75,1.36,3.46-.19,7.47C150.14,310.28,152.9,317.41,156.72,322.4Z"/><path class="cls-5" d="M104.09,371.57c-17,17.16-28.11,39.27-43.18,58.18S24.19,465.24.05,463.86c9.51,11.4,25,15.93,39.7,17.7C93.23,488,147.58,465.1,187,428.32c12.29-11.48,23.61-24.73,29-40.66,4.29-12.59,4.43-27.29-1.57-39.36-6.22-12.52-21.83-10.83-34.37-10.15C151.84,339.69,124.07,351.45,104.09,371.57Z"/><path class="cls-6" d="M22.38,460.11c1.26.2,2.51.37,3.76.52,53.48,6.44,107.83-16.47,147.19-53.24,12.3-11.49,23.62-24.73,29-40.66a55.94,55.94,0,0,0,2.36-27.09,17.15,17.15,0,0,1,9.63,8.64c6,12.07,5.86,26.77,1.58,39.36-5.42,15.93-16.74,29.18-29,40.66C147.54,465.08,93.19,488,39.7,481.54,25,479.77,9.51,475.24,0,463.83A53.19,53.19,0,0,0,22.38,460.11Z"/><path class="cls-7" d="M187.92,352.44c-.49,3.69-3.54,6.61-6.92,8.17s-7.14,2-10.78,2.82A62.76,62.76,0,0,0,142.87,377c-5.2,4.45-9.77,9.81-15.87,12.9-2.69,1.37-5.9,2.24-8.7,1.12-4.08-1.62-5.59-7-4.29-11.18s4.64-7.4,8-10.19a109.09,109.09,0,0,1,34.9-19.34C162.8,348.35,189.75,338.59,187.92,352.44Z"/><path class="cls-8" d="M39.7,481.54C25,479.77,9.51,475.24,0,463.84c24.15,1.38,45.8-15.19,60.87-34.11,3.33-4.19,6.47-8.53,9.53-13a10.29,10.29,0,0,1,3.65,1.12c5.75,2.92,6.83,9.73,11.59,13.65,4.34,3.56,10.58,3.49,15.7,5.81A18.09,18.09,0,0,1,111,448.24c1.11,3.49,1.13,7.31,2.65,10.64,1.9,4.19,5.94,7.14,8.62,10.82C96,480.23,67.75,484.92,39.7,481.54Z"/><path class="cls-9" d="M0,463.93l1.43.06H3c1.42,0,2.84-.06,4.24-.19h0a55.49,55.49,0,0,0,15.17-3.6q1.88.29,3.75.51C55,464.19,84.05,459.13,110.9,448l.12.35c1.1,3.49,1.13,7.31,2.64,10.64,1.91,4.19,5.94,7.14,8.62,10.82-.11,0-13.39,10.4-63.16,13.94C31.79,485.67,9.53,475.33,0,463.93Z"/><path class="cls-3" d="M215,472.91c1.3,0,5.59.52,7,3.07.55,1,1.2,2.52.56,3.8,1.47,1.5.24,4.61-.22,5.06-1.15,1.14-1.06,1-3.3,1.16.6.33.15,3.32-1.7,4.35-3.34,1.86-8.76.52-12.43-.57-6-1.77-6.62-5.47-7.11-8a20.82,20.82,0,0,1,.31-7.7,9.82,9.82,0,0,1,2.05-5A6.31,6.31,0,0,1,205,467.2c2.11.07,7.71-1.37,7.62.86C212.59,469.18,211.3,472.77,215,472.91Z"/><path class="cls-3" d="M212.35,477.29a6.34,6.34,0,0,1-.56,3.06c-.93,1.62-3,2.07-4.85,2.36a9.68,9.68,0,0,1-5-.1,6.47,6.47,0,0,1-3.51-4.06,18.52,18.52,0,0,1-.7-5.46c-.38-15.35.23-30.75-1.42-46-.39-3.58-.82-7.51,1.19-10.5,1.53-2.28,4.2-3.52,6.83-4.29,3-.87,6.25-1.27,9.09,0,7.73,3.36,2.95,15.63,2.16,21.67q-1.82,13.86-2.64,27.83Q212.5,469.52,212.35,477.29Z"/><path class="cls-4" d="M219.07,486a4.91,4.91,0,0,0-2.59-4.05,15.44,15.44,0,0,0-3.82-1.3,6.89,6.89,0,0,1,5.26.65,6.18,6.18,0,0,1,3.06,4.54l-1.91.16Z"/><path class="cls-4" d="M222.59,479.78a7.74,7.74,0,0,0-2.4-1.87,17,17,0,0,0-4.32-1,13.11,13.11,0,0,1,3.61.06,6.53,6.53,0,0,1,3.37,1.53,2.7,2.7,0,0,1-.08.78,2.16,2.16,0,0,1-.18.54Z"/><path class="cls-5" d="M313,420c-8,7.11-20.12,6.06-21.56,4.72a10.27,10.27,0,0,1-2.34-3.81c-3.8-9.1-6.48-18.54-10.57-27.54S268.51,381.91,254.76,381c-4.88-.34,0-21.9.91-23,5.84-7.41,15.06-12.09,23.52-17.21a170.57,170.57,0,0,0,35.29-28.25c5.39-5.66,12.65-7,16,4.26C333.11,325.67,316.75,416.75,313,420Z"/><path class="cls-5" d="M195.22,426.68c8.95,6.2,20.81,3.88,22.06,2.39a9.9,9.9,0,0,0,1.79-4c2.51-9.43,3.87-19.09,6.68-28.45s10.48-13.33,24-15.72c4.79-.85-5.15-20.88-6.2-21.92-6.82-6.73-16.62-10.4-25.72-14.58a178.37,178.37,0,0,1-39-24.29c-6.13-5.05-13.51-5.57-15.27,5.92C162.21,335.15,191.09,423.82,195.22,426.68Z"/><path class="cls-5" d="M301.12,211.87C292.29,187.56,291.6,173,291.6,173l-44.42,15.29L202.75,173s-.69,14.53-9.52,38.84-41.12,89.58-26.62,130.41c6.14,17.3,45.95,37.11,83.14,38.59,41.73,1.66,71.7-16.07,77.72-34.72C340.76,304.91,310,236.19,301.12,211.87Z"/><path class="cls-6" d="M259.85,218.62c9.93-2.24,18.38-8.6,26.13-15.2,3.64-3.09,7.39-6.59,8.43-11.25a11,11,0,0,0,.24-1.78q-.88-3.66-1.47-6.63a19.34,19.34,0,0,0-9-8.47l-.38-.16-36.66,12.62L210.1,175a30.85,30.85,0,0,0-8.32,4.69c-.44,2.69-1.1,6.09-2.08,10.14,2.08,4.35,6.57,8.79,9.39,11.64a62.3,62.3,0,0,0,15.17,11.22,59.43,59.43,0,0,0,19.86,6.39A44.45,44.45,0,0,0,259.85,218.62Z"/><path class="cls-8" d="M207.69,241.06a202.34,202.34,0,0,0-8.8,36.55c-2.23,15.5-1.93,33.28,9.2,44.3,8.54,8.45,21.32,10.71,33.29,11.77,9.59.86,19.36,1.2,28.75-.9s18.49-6.89,24.17-14.67c8.49-11.6,8-27.7,3.51-41.37s-12.32-26-17.83-39.24a121.59,121.59,0,0,1-8.72-34.94c-.27-2.9.37-14.81-2-16.51-1.57-1.12-46.26-5.37-49.68,2.75-1.25,3-.58,15.41-1.2,18.75a99,99,0,0,1-2.82,11.09C213.23,226.21,210.24,233.56,207.69,241.06Z"/><path class="cls-9" d="M272.91,213.16c-.66-3.54-1.05-7.14-1.39-10.72-.28-2.9-.32-14.69-2.69-16.39-.51-.37-5.75-1.08-12.64-1.57l-9.51,3.27L236,184.07c-8.45.38-15.55,1.68-16.83,4.73s-.59,15.41-1.21,18.75c-.08.48-.18,1-.28,1.43a62.18,62.18,0,0,0,6.16,3.72,59.58,59.58,0,0,0,19.86,6.39,44.52,44.52,0,0,0,15.74-.47A47.62,47.62,0,0,0,272.91,213.16Z"/><path class="cls-3" d="M74.75,35.76C70,30.28,65,22.6,68.15,16.3c2.49-5,8.7-6.05,14.11-6.59L120.1,5.9c12.83-1.29,70.63,4.51,73.06,18,2.58,14.24-13.2,38.33-22.4,48.48a163.07,163.07,0,0,1-16.57,15.85C140,100,127.75,85.45,115.47,75.32A350.37,350.37,0,0,1,74.75,35.76Z"/><path class="cls-5" d="M117.86,70.26A111.76,111.76,0,0,1,91.67,42.4C89,38.29,86.5,32.91,89,28.68a12.26,12.26,0,0,1,4.28-3.87c14-8.68,27.86-10.79,44.07-8C148,18.57,153.5,27.18,157.91,28.5c5.62,1.68,7.25-6.84,9.85-1.58A21.73,21.73,0,0,1,168.6,44c-1.45,3.82-3.95,7.14-6.48,10.35q-7.62,9.69-16,18.74c-3.52,3.8-.06,15.22-5.46,13.39C135,84.6,122.55,73.79,117.86,70.26Z"/><path class="cls-8" d="M141.62,69.1a93.79,93.79,0,0,1,11-21.57c2.27-3.31,4.77-6.5,6.51-10.12a18.6,18.6,0,0,0,2-9.06,4.7,4.7,0,0,1-3.26.15c-4.41-1.32-9.89-9.93-20.55-11.74a67.72,67.72,0,0,0-21.37-.5c-2.87,1.77-5.66,3.38-8,5.95a27,27,0,0,0-3.46,4.57c-.6,1-1.6,4.66-2.41,5.19a16.45,16.45,0,0,1,7.61-2.58,17.76,17.76,0,0,0-.85,13.37,25.76,25.76,0,0,1,16.08-4.13L119.17,46l5-1a23.93,23.93,0,0,0-7.61,11.19,29.93,29.93,0,0,1,8.91.4,14.43,14.43,0,0,0-3.18,6.84A23.88,23.88,0,0,1,141.62,69.1Z"/><path class="cls-3" d="M409.62,34.91c5-5.33,10.14-12.86,7.18-19.25-2.34-5-8.52-6.3-13.91-7L365.18,3.72c-12.78-1.67-78.21,6-81.05,19.4-3,14.16,19.54,35.1,28.44,45.52A162.28,162.28,0,0,0,328.65,85c13.89,12.23,26.51-2,39.09-11.75A348.75,348.75,0,0,0,409.62,34.91Z"/><path class="cls-5" d="M365.5,68.12a112.23,112.23,0,0,0,27-27.07c2.82-4,5.44-9.33,3.06-13.63a12.35,12.35,0,0,0-4.16-4c-13.7-9.1-27.53-11.62-43.81-9.36-10.72,1.49-16.44,9.93-20.89,11.11-5.67,1.52-7.05-7-9.81-1.86a21.76,21.76,0,0,0-1.34,17.06c1.33,3.86,3.73,7.26,6.16,10.54q7.35,9.92,15.46,19.21c3.41,3.9-.39,15.21,5.05,13.55C347.91,81.94,360.71,71.5,365.5,68.12Z"/><path class="cls-8" d="M342.52,66.59a93.37,93.37,0,0,0-11.06-21.54c-2.28-3.3-4.79-6.48-6.54-10.1a18.68,18.68,0,0,1-2.05-9.06,4.65,4.65,0,0,0,3.26.15c4.41-1.34,9.86-10,20.52-11.79A67.74,67.74,0,0,1,368,13.68c2.88,1.77,5.67,3.37,8.07,5.93a27,27,0,0,1,3.47,4.56c.61,1,1.61,4.66,2.43,5.18a16.49,16.49,0,0,0-7.62-2.55,17.81,17.81,0,0,1,.89,13.37,25.86,25.86,0,0,0-16.09-4.1q2.86,3.7,5.75,7.4l-5-1a23.88,23.88,0,0,1,7.64,11.17,29.94,29.94,0,0,0-8.91.42,14.33,14.33,0,0,1,3.2,6.83A24,24,0,0,0,342.52,66.59Z"/><path class="cls-8" d="M306.42,7.29C275.5-1.69,246,.16,246,.16s-29.56-1.85-60.47,7.13S129.55,52.23,134.1,84.47c3.11,22.07,10.91,60.27,35.92,85.64s77.16,36.38,77.16,36.38,49.69-11,74.69-36.38,32.81-63.57,35.92-85.64C362.34,52.23,337.33,16.28,306.42,7.29Z"/><path class="cls-8" d="M119.61,141.77l14.2,2.12a69.84,69.84,0,0,1-9,12.41,122.08,122.08,0,0,0,17.42.68,15.56,15.56,0,0,1-8.54,10.09,263.79,263.79,0,0,0,80.71,24c5,.65,10.72,1,14.59-2.33,3.43-2.92,4.33-8,3.32-12.43s-3.63-8.23-6.32-11.85c-14.15-19.06-31.75-35.23-49.24-51.27-5-4.58-10-9.21-16.08-12.3-4.14-2.12-13-5.45-17.11-1.62-3.11,2.9-2.11,10.12-2.93,14A43.86,43.86,0,0,1,133,130C131.1,132.59,123.41,142.33,119.61,141.77Z"/><path class="cls-8" d="M373.84,140.94l-14.18,2.3a70.08,70.08,0,0,0,9.16,12.3,122.07,122.07,0,0,1-17.41.9,15.55,15.55,0,0,0,8.67,10,263.8,263.8,0,0,1-80.4,25c-5,.71-10.71,1.11-14.62-2.14-3.47-2.88-4.43-8-3.48-12.39s3.53-8.28,6.17-11.93c13.9-19.24,31.3-35.63,48.58-51.9,4.92-4.64,9.93-9.34,15.92-12.5,4.11-2.17,12.94-5.62,17.09-1.84,3.15,2.86,2.24,10.09,3.11,13.91a43.64,43.64,0,0,0,7.81,16.65C362.23,131.91,370.05,141.55,373.84,140.94Z"/><path class="cls-9" d="M187.43,70.9c26.35,5.64,41,36.82,46.61,48.88.88,1.9,2.33,4.17,4.4,3.82,4.65-15.79-2.77-32.65-12.32-46.06-3.89-5.45-8.23-10.7-13.72-14.53C198,52.94,178,54.56,161.86,61.62c-5,2.17-27,24.15-13.13,16.29C160.09,71.46,174.25,68.08,187.43,70.9Z"/><path class="cls-9" d="M304.33,69.15c-26.48,4.95-41.92,35.73-47.87,47.64-.94,1.87-2.44,4.1-4.5,3.69-4.23-15.9,3.63-32.56,13.53-45.71,4-5.35,8.51-10.48,14.1-14.16,14.71-9.69,34.61-7.55,50.55-.07,4.9,2.3,26.32,24.86,12.7,16.63C331.65,70.42,317.59,66.68,304.33,69.15Z"/><path class="cls-10" d="M356.07,142.51a51.71,51.71,0,0,0-16.3-7.37A66.43,66.43,0,0,1,353.63,147c-7.58-4.41-17.34-9.46-26.17-10.16,6.32,4.87,13.65,12.3,16.27,18.48-11.79-11.36-31.53-22.85-49-27.78,1.9.54,20.38-7.93,45,3.39C346.84,134.2,353.57,139,356.07,142.51Z"/><path class="cls-10" d="M141,145.75a51.68,51.68,0,0,1,16.1-7.81,66,66,0,0,0-13.54,12.27c7.46-4.61,17.08-9.92,25.89-10.85-6.19,5-13.32,12.65-15.77,18.9,11.48-11.67,30.91-23.68,48.19-29.07-1.88.59-20.58-7.39-44.94,4.59C150,137.19,143.38,142.19,141,145.75Z"/><path class="cls-6" d="M324.47,371.16q-4.73,17.08-9.43,34.15c-1.17,4.24-2.48,8.71-5.7,11.71-4.42,4.11-10.53,3.93-16.12,3.25a10.2,10.2,0,0,0-3.88.18l.24.57a10.38,10.38,0,0,0,2.33,3.81c1.45,1.34,13.54,2.38,21.57-4.72C315.31,418.48,320.27,395.25,324.47,371.16Z"/><path class="cls-6" d="M177.25,378.43c3.15,11.38,18.81,41,22,44,4.42,4.12,14.69,5.86,19.79,2.64a6.34,6.34,0,0,1-3.12,5.72c-1.74.92-13.16,3.56-21.18-3.54C192.93,425.59,184.24,403.38,177.25,378.43Z"/><path class="cls-5" d="M303.71,5.9c31.19,8,58.14,43.45,54.62,75.82-.49,4.48-5.17,24.69-6.11,30.26,0,0,4.31-46.89-36.66-51.19-26-2.74-39.34,7.14-47.07,25.4-6.92,16.33-9.3,56.44-9.3,56.44l-16.14.06V.69S272.53-2.1,303.71,5.9Z"/><path class="cls-11" d="M326.05,32.11c1.28,1.42,2.41,3.61,1.22,5.1s-3.44.92-5.11.12c-3.42-1.63-6.54-3.86-10.07-5.26-3.38-1.34-7-1.88-10.43-3.21-1.05-.41-2.26-1.21-2.1-2.33a2.13,2.13,0,0,1,.51-1,7,7,0,0,1,5.12-2.34C313,22.69,320.92,26.38,326.05,32.11Z"/><path class="cls-5" d="M185.48,7.45c-30.92,9-55.93,44.94-51.38,77.18.63,4.46,5.15,24.84,6.26,30.38,0,0-5.79-46.73,35-52.33,25.91-3.55,39.54,5.89,47.86,23.9,7.43,16.1,11.08,56.11,11.08,56.11l18.2-.06L246,.32S216.39-1.54,185.48,7.45Z"/><path class="cls-11" d="M167.36,36.54c-1.17,1.47-2.17,3.68-.92,5.09s3.44.72,5-.16c3.27-1.79,6.23-4.15,9.62-5.72s6.83-2.23,10.09-3.73c1-.46,2.16-1.31,1.95-2.4a2.13,2.13,0,0,0-.56-1,7,7,0,0,0-5.17-2C179.74,26.57,172.11,30.62,167.36,36.54Z"/><path class="cls-7" d="M198.26,12.49A15.58,15.58,0,0,0,193,14.91a5.43,5.43,0,0,0-2.18,5.1c.48,2.32,3,3.76,5.36,3.87s4.66-.77,6.91-1.53a74,74,0,0,1,24.28-3.87c7.32.06,14.82,1.2,21.86-.83,3.6-1,7.48-3.82,7-7.54a6.45,6.45,0,0,0-4.37-4.85,19,19,0,0,0-6.78-.76C229.11,4.64,213.54,7.66,198.26,12.49Z"/><path class="cls-10" d="M223.25,262.69c-.72-9.07,1.81-18.18,6-26.26A24,24,0,0,0,221,246.69c-2.52-3-4.21-7.85-6.94-10.27-1.3,3.15,1.73,10.24,2.91,13.5a62.8,62.8,0,0,0,2.85,6.71C220.62,258.19,223.12,261.05,223.25,262.69Z"/><path class="cls-10" d="M256.4,247.6c-.72-9.07,1.81-18.18,6-26.25a23.82,23.82,0,0,0-8.2,10.26c-2.53-3-4.22-7.86-6.95-10.28-1.3,3.15,1.73,10.24,2.91,13.51a63.53,63.53,0,0,0,2.85,6.7C253.77,243.1,256.27,246,256.4,247.6Z"/><path class="cls-10" d="M238.45,296.87c-.73-9.06,1.81-18.17,6-26.25a24,24,0,0,0-8.2,10.26c-2.53-3-4.22-7.85-7-10.27-1.29,3.15,1.73,10.24,2.91,13.5a67.18,67.18,0,0,0,2.85,6.71C235.82,292.37,238.32,295.24,238.45,296.87Z"/><path class="cls-10" d="M271.87,283.74c-.73-9.06,1.81-18.18,6-26.25a24,24,0,0,0-8.2,10.26c-2.52-3-4.22-7.86-7-10.27-1.29,3.15,1.74,10.23,2.91,13.5a68.19,68.19,0,0,0,2.85,6.71C269.24,279.24,271.74,282.1,271.87,283.74Z"/><path class="cls-10" d="M256.09,325.93c-.6-7.42,1.48-14.89,4.91-21.5a19.6,19.6,0,0,0-6.72,8.4c-2.07-2.45-3.46-6.43-5.69-8.42C247.53,307,250,312.8,251,315.48a54.18,54.18,0,0,0,2.34,5.49C253.93,322.25,256,324.59,256.09,325.93Z"/><path class="cls-10" d="M217.4,317c-.6-7.42,1.48-14.89,4.91-21.5a19.67,19.67,0,0,0-6.72,8.4c-2.07-2.45-3.46-6.43-5.69-8.41-1.06,2.58,1.42,8.38,2.38,11.06a54.18,54.18,0,0,0,2.34,5.49C215.25,313.34,217.29,315.68,217.4,317Z"/><path class="cls-10" d="M285.69,308.31c-.6-7.43,1.48-14.89,4.91-21.51a19.57,19.57,0,0,0-6.72,8.41c-2.07-2.46-3.46-6.44-5.69-8.42-1.06,2.58,1.42,8.39,2.38,11.06a55.34,55.34,0,0,0,2.34,5.5C283.53,304.62,285.58,307,285.69,308.31Z"/><path class="cls-6" d="M193,367.14c.74.41,34.85,15.26,58.07,15.26,40.06,0,61.18-17.33,60.8-17.07s-29.26,12.8-59.22,11.87S193,367.14,193,367.14Z"/><path class="cls-3" d="M187.84,115c-5.06.55-14.9-3.42-18.85-9-1.16-1.63-6.72-8.71-8.67-9.15a3.9,3.9,0,0,1-2-.72,1.91,1.91,0,0,1,0-2.45,5.53,5.53,0,0,1,2.21-1.48q3.33-1.47,6.75-2.71c1.39,5.37,5.81,10.08,11.47,12.74,16.82,7.89,27.4-2.61,32.52-9.69a.56.56,0,0,1,1,.52,32.39,32.39,0,0,1-1.42,3.44C209.05,99.88,200.79,113.62,187.84,115Z"/><path class="cls-10" d="M172.09,83.42c-.85,1.49-1,3.61.25,4.74,1.13,1,2.88.77,4.25.17a31.38,31.38,0,0,0,4.17-2.63,22.45,22.45,0,0,1,10.76-3.56c1.39-.08,3.08-.21,3.68-1.47s-.43-2.72-1.6-3.5c-3.33-2.21-7.23-1.45-10.71-.14C179.05,78.47,174.29,79.57,172.09,83.42Z"/><path class="cls-3" d="M307.12,116.63c5,.88,15.09-2.45,19.4-7.76,1.27-1.55,7.28-8.25,9.25-8.57a3.81,3.81,0,0,0,2.05-.58,1.91,1.91,0,0,0,.12-2.45,5.39,5.39,0,0,0-2.11-1.62c-2.15-1.12-4.33-2.17-6.56-3.14-1.73,5.27-6.45,9.68-12.27,12-17.3,6.78-27.17-4.38-31.82-11.78a.56.56,0,0,0-1,.46,33.71,33.71,0,0,0,1.19,3.52C287,100.12,294.29,114.36,307.12,116.63Z"/><path class="cls-10" d="M324.9,86.1c.75,1.54.8,3.67-.56,4.71-1.19.91-2.92.59-4.25-.11a30.87,30.87,0,0,1-4-2.89,22.32,22.32,0,0,0-10.51-4.25c-1.38-.17-3-.42-3.57-1.71s.6-2.69,1.82-3.39c3.47-2,7.32-1,10.7.56C318.27,80.7,323,82.12,324.9,86.1Z"/><path class="cls-3" d="M228.64,181.59a.49.49,0,0,1-.74-.64c2.94-4.74,10-13.9,19.21-13.4,8.72.47,15.62,9.19,18.84,14.13a.52.52,0,0,1-.78.68c-3.79-3.34-11-8.6-18.7-8.6C238.94,173.76,232.05,178.69,228.64,181.59Z"/><path class="cls-6" d="M173.64,262.9a134.24,134.24,0,0,0-6.91,20.35c-2.72,10.93-3.81,29.81-3.81,29.81s3.81-19.83,9.31-33.76,13.31-40.92,13.31-40.92Z"/><path class="cls-6" d="M150,300.06c0-.94,3.7-13.9,11.24-24.37s24.29-37.31,24.29-37.31l-13.46,31.69s-8.16,11.77-12.32,19.67-8.25,15.65-8.25,15.65Z"/><path class="cls-3" d="M364,310.33a26.19,26.19,0,0,1,4.52.22,5,5,0,0,1,3.6,2.48,2.81,2.81,0,0,1-1.34,3.79,4.85,4.85,0,0,1,5,4.06c.21,2.35-2.28,4.65-4.53,3.93a2.87,2.87,0,0,1,.56,3.76,4.58,4.58,0,0,1-3.55,1.94,11.82,11.82,0,0,1-4.12-.59c-7.21-2-14.17-5.36-19.51-10.59a54.09,54.09,0,0,1-9.14-12.14c-2.56-6.19,2.85-9.62,6-9.64,2.25,0,3.56,1.09,5.72,4.8C350.44,307.9,357.74,310.2,364,310.33Z"/><path class="cls-12" d="M551,497.79l-21.46,2.35,20.8,6.26-31.85,2.24L530.87,519a91.65,91.65,0,0,1-20.75-6.65,16.81,16.81,0,0,0,5.18,6.4c-4.79-3.59-54.54-15.51-27.15-24.11C507.07,488.69,532,494.72,551,497.79Z"/><path class="cls-12" d="M474.31,492.9c-.95,1.85-2.66,3.18-4.2,4.58s-3,3.08-3.3,5.15c.09-.7,8.18-1.55,9.09-1.65,2.3-.28,7.32.44,9.21-.77,2.81-1.78-.56-3.34-2.15-3.82A51,51,0,0,1,474.31,492.9Z"/><path class="cls-10" d="M281.48,135.14c-2.94-7.19-13.92-10-16.14-10.88a25.76,25.76,0,0,0-8.46-1.31c-11-.35-26.79,2-26.86,2s-9.57,1.22-13.83,8.59a12.75,12.75,0,0,0,.33,13.52c2.22,3.3,6.09,5.67,10.06,7.5,12.61,5.82,33,7.42,44.67,1.06C280.45,150.59,283.85,140.93,281.48,135.14Z"/><path class="cls-3" d="M267.27,129.23a9.5,9.5,0,0,0-4.8-5.56,19.31,19.31,0,0,0-7.25-1.92c-2.76-.27-14-.27-16.77,0a19.31,19.31,0,0,0-7.25,1.92,9.5,9.5,0,0,0-4.8,5.56,6.35,6.35,0,0,0,2.08,6.78,20.71,20.71,0,0,0,3.35,1.62,10.85,10.85,0,0,1,3.78,3c1.22,1.51,2,3.34,3.34,4.77,2,2.14,5,3.1,7.88,3.46,2.93-.36,5.89-1.32,7.89-3.46,1.32-1.43,2.12-3.26,3.33-4.77a11,11,0,0,1,3.79-3,21.12,21.12,0,0,0,3.35-1.62A6.35,6.35,0,0,0,267.27,129.23Z"/><path class="cls-13" d="M232.33,127.86a2.66,2.66,0,0,0,.88,3.51,3,3,0,0,0,2.51-.12,25,25,0,0,0,2.22-1.33c2.32-1.33,5.1-1.53,7.77-1.63a5.14,5.14,0,0,0,2.14-.37,1.75,1.75,0,0,0,1.07-1.74c-.42-2.39-6.3-2.23-8.12-2.06C238.06,124.38,233.7,125.12,232.33,127.86Z"/></g></g></svg>