<svg xmlns="http://www.w3.org/2000/svg" viewBox="0 0 525.44 703.21"><defs><style>.cls-1{fill:#f2881d;}.cls-2{fill:#e27b1e;}.cls-3{fill:#fcd8be;}.cls-4{fill:#efc8ac;}.cls-19,.cls-5{fill:#ffa912;}.cls-6{fill:#60423e;}.cls-7{fill:#d86964;}.cls-8{fill:#382624;}.cls-9{fill:#f7e9e2;}.cls-10{fill:#e08119;}.cls-11{fill:#ffb845;}.cls-12,.cls-17{fill:#fff;}.cls-13{fill:#b9dfea;}.cls-14{fill:#9acee8;}.cls-15{fill:#ffd41d;}.cls-16{fill:#e8b628;}.cls-17{opacity:0.37;}.cls-18{fill:#ffa515;}.cls-19{opacity:0.65;}</style></defs><g id="Слой_2" data-name="Слой 2"><g id="Layer_2" data-name="Layer 2"><path class="cls-1" d="M156.91,532.68c-17.77,16.4-29.81,38-45.68,56.25S73,622.77,48.93,620.33c9,11.81,24.24,17,38.89,19.43C141,648.53,196.27,628,237.2,593,250,582.07,261.88,569.33,268,553.66c4.83-12.39,5.61-27.07.14-39.4-5.66-12.77-21.33-11.77-33.88-11.64C206,502.92,177.74,513.46,156.91,532.68Z"/><path class="cls-2" d="M71.41,617.57c1.24.25,2.48.47,3.72.68,53.15,8.77,108.45-11.73,149.39-46.75,12.78-10.94,24.67-23.68,30.78-39.36a56,56,0,0,0,3.55-26.95,17.15,17.15,0,0,1,9.24,9.05c5.47,12.32,4.68,27-.15,39.39-6.11,15.68-18,28.42-30.78,39.36-40.94,35-96.24,55.52-149.39,46.75-14.65-2.42-29.88-7.62-38.89-19.43A53.31,53.31,0,0,0,71.41,617.57Z"/><path class="cls-3" d="M87.77,639.74c-14.65-2.42-29.88-7.62-38.89-19.43,24.06,2.44,46.42-13.17,62.3-31.41,3.52-4,6.85-8.24,10.09-12.52a10,10,0,0,1,3.6,1.28c5.62,3.17,6.39,10,11,14.14,4.19,3.75,10.42,4,15.43,6.49a18.11,18.11,0,0,1,9.18,11.3c.95,3.53.81,7.34,2.18,10.74,1.72,4.27,5.62,7.4,8.13,11.18C144.1,640.88,115.64,644.34,87.77,639.74Z"/><path class="cls-4" d="M48.89,620.4l1.43.12h.06l1.34.07h.11c1.42.06,2.84.06,4.25,0h0a55.27,55.27,0,0,0,15.32-2.94c1.24.25,2.48.48,3.72.68,28.65,4.73,57.92.95,85.22-9,0,.12.08.24.11.36.95,3.53.81,7.35,2.18,10.74,1.72,4.27,5.62,7.4,8.13,11.18-.11,0-13.83,9.81-63.71,11.17C79.69,643.52,57.9,632.21,48.89,620.4Z"/><path class="cls-5" d="M378.48,393.92c18.23,5.57,26,6.17,38.85,6.15l21.34,0q-.48,5.77-.95,11.56a363.1,363.1,0,0,1-40.09,11.92c-13.63,3.22-27.83,5.65-41.59,3-7.58-1.44-15-4.53-20.54-9.95s-8.8-13.38-7.44-21C333.5,365.24,359.6,388.15,378.48,393.92Z"/><path class="cls-6" d="M449.11,387.48a24.3,24.3,0,0,1,2-4.06,5,5,0,0,1,3.71-2.32,2.81,2.81,0,0,1,2.94,2.74,4.84,4.84,0,0,1,5.71-2.95c2.24.74,3.36,3.94,1.79,5.72a2.88,2.88,0,0,1,3.68,1,4.63,4.63,0,0,1,.37,4,12,12,0,0,1-2.19,3.55c-4.71,5.81-10.56,10.85-17.49,13.67a54.57,54.57,0,0,1-14.78,3.54c-6.7-.13-7.68-6.45-6.45-9.34.88-2.07,2.42-2.83,6.69-3.33C441.46,399,446.48,393.18,449.11,387.48Z"/><path class="cls-7" d="M455.67,389.55a4.91,4.91,0,0,0-2.81,1.59,7.26,7.26,0,0,0-2.07,4.62,3.86,3.86,0,0,0,.54,2.26,3.62,3.62,0,0,0,4.19,1.15,7.44,7.44,0,0,0,3.5-3,5.73,5.73,0,0,0,1.19-3C460.28,391.07,457.63,389.3,455.67,389.55Z"/><path class="cls-7" d="M452.61,385.13a2.44,2.44,0,0,0,.25,1.41,1.33,1.33,0,0,0,1.17.74,1.56,1.56,0,0,0,.94-.4,3.26,3.26,0,0,0,1-1.4c.32-.93.07-2.42-1.1-2.58S452.68,384,452.61,385.13Z"/><path class="cls-7" d="M460.85,383.15a4.83,4.83,0,0,0-2,3,1.86,1.86,0,0,0,.34,1.39,1.88,1.88,0,0,0,2.11.43,4,4,0,0,0,1.71-1.5C464.26,384.67,463.41,381.78,460.85,383.15Z"/><path class="cls-7" d="M465.19,388.62a4.7,4.7,0,0,0-1.63,1.31,2.09,2.09,0,0,0-.4,2.34,1.78,1.78,0,0,0,2.33.37,4.57,4.57,0,0,0,1.63-2A1.44,1.44,0,0,0,465.19,388.62Z"/><path class="cls-1" d="M352.88,419.7s2.49,3.05,23.83,1.57,55.51-7.73,55.51-7.73-18.37,8.86-37.48,12.14-37.94,4.82-38.86,5S352.88,419.7,352.88,419.7Z"/><path class="cls-5" d="M218.91,405.47c-19.07,0-26.67-1.75-38.94-5.55l-20.38-6.32q-1.26,5.67-2.5,11.34a363.21,363.21,0,0,0,34.8,23.18c12.08,7.09,24.93,13.59,38.86,15.14,7.67.85,15.71.1,22.56-3.46s12.34-10.2,13.28-17.87C270.33,391.3,238.65,405.52,218.91,405.47Z"/><path class="cls-6" d="M153.3,378.53a24.91,24.91,0,0,0-.72-4.48,5,5,0,0,0-2.86-3.3,2.83,2.83,0,0,0-3.62,1.75,4.84,4.84,0,0,0-4.58-4.5c-2.36.05-4.37,2.78-3.4,4.94a2.88,2.88,0,0,0-3.8-.14,4.56,4.56,0,0,0-1.54,3.74,11.88,11.88,0,0,0,1,4c2.79,6.94,6.9,13.48,12.69,18.22a54.6,54.6,0,0,0,13.09,7.73c6.44,1.85,9.24-3.9,8.91-7-.23-2.23-1.48-3.41-5.41-5.15C157.23,391.75,154.13,384.75,153.3,378.53Z"/><path class="cls-7" d="M146.42,378.58a4.84,4.84,0,0,1,2.21,2.34,7.16,7.16,0,0,1,.62,5,3.84,3.84,0,0,1-1.17,2,3.65,3.65,0,0,1-4.35-.13,7.51,7.51,0,0,1-2.46-3.9,5.83,5.83,0,0,1-.25-3.22C141.57,378.67,144.62,377.76,146.42,378.58Z"/><path class="cls-7" d="M150.65,375.25a2.57,2.57,0,0,1-.65,1.28,1.35,1.35,0,0,1-1.34.36,1.57,1.57,0,0,1-.78-.66,3.15,3.15,0,0,1-.52-1.63c0-1,.65-2.32,1.81-2.14S150.91,374.16,150.65,375.25Z"/><path class="cls-7" d="M143.35,370.93a4,4,0,0,1,1,2,3.6,3.6,0,0,1,.09,1.46,1.82,1.82,0,0,1-.72,1.22,1.88,1.88,0,0,1-2.15-.21,4,4,0,0,1-1.19-1.93C139.65,371.39,141.31,368.87,143.35,370.93Z"/><path class="cls-7" d="M137.6,374.88a4.74,4.74,0,0,1,1.17,1.73,2.12,2.12,0,0,1-.3,2.36,1.79,1.79,0,0,1-2.34-.33,4.56,4.56,0,0,1-1-2.37A1.44,1.44,0,0,1,137.6,374.88Z"/><path class="cls-1" d="M235.78,437.64s-3.28,2.19-23.24-5.51-50.77-23.73-50.77-23.73S176.72,422.27,194,431s34.83,15.77,35.68,16.18S235.78,437.64,235.78,437.64Z"/><path class="cls-6" d="M261,682.21c-1.5.19-6.39,1.17-7.75,4.24-.54,1.19-1.12,3-.26,4.43-1.54,1.88.19,5.33.77,5.8,1.44,1.2,1.32,1.08,3.91,1-.66.44.17,3.84,2.4,4.84,4,1.8,10.13-.29,14.24-1.91,6.72-2.65,7.07-7,7.37-9.94s-1.82-12.75-2.46-16.65c-.34-2.08-5.24.35-7.28.6-2.42.3-9-.79-8.68,1.77C263.44,677.67,265.28,681.67,261,682.21Z"/><path class="cls-8" d="M257.68,697.68s-.16-3.38,2.57-4.92a18.2,18.2,0,0,1,4.27-1.88,8,8,0,0,0-6,1.28,7.14,7.14,0,0,0-3.06,5.53Z"/><path class="cls-8" d="M253,690.88a9.1,9.1,0,0,1,2.57-2.4,20.25,20.25,0,0,1,4.87-1.63,15.39,15.39,0,0,0-4.14.43,7.63,7.63,0,0,0-3.73,2.11,3,3,0,0,0,.17.89,2,2,0,0,0,.26.6Z"/><path class="cls-6" d="M395.37,628.36c.46,1.44,2.19,6.11.21,8.83-.77,1.06-2.07,2.48-3.71,2.44-.86,2.27-4.71,2.49-5.41,2.23-1.76-.65-1.6-.61-2.82-2.89-.05.79-3.41,1.78-5.39.34-3.57-2.59-4.81-8.92-5.47-13.29-1.06-7.14,2-11.83,4.8-15.4,1.83-2.36,11.76-6.46,12.56-4.57,1,2.25,8.28,1.55,5.78,5C395.16,612.08,392.64,619.7,395.37,628.36Z"/><path class="cls-8" d="M383.64,639s3-1.55,3-4.68a17.76,17.76,0,0,0-.5-4.63,7.92,7.92,0,0,1,1.89,5.82,7.17,7.17,0,0,1-3.27,5.42L383.64,639Z"/><path class="cls-8" d="M391.87,639.63a9.14,9.14,0,0,0,.79-3.43,20.08,20.08,0,0,0-1-5,15.27,15.27,0,0,1,1.7,3.81,7.56,7.56,0,0,1,0,4.28,2.79,2.79,0,0,1-.85.29,2.43,2.43,0,0,1-.65.08Z"/><path class="cls-5" d="M355.71,400.5c-8.83-24.32-9.52-38.85-9.52-38.85l-44.42,15.29-44.43-15.29s-.69,14.53-9.52,38.85S206.7,490.08,221.2,530.9c6.14,17.3,45.95,37.12,83.14,38.59,41.73,1.66,71.7-16.06,77.72-34.72C395.35,493.54,364.54,424.82,355.71,400.5Z"/><path class="cls-1" d="M314.44,407.25c9.93-2.25,18.38-8.6,26.13-15.2,3.64-3.1,7.39-6.6,8.43-11.26a10.75,10.75,0,0,0,.24-1.77q-.89-3.67-1.47-6.63a19.31,19.31,0,0,0-9-8.48l-.38-.16L301.7,376.37l-37-12.74a30.89,30.89,0,0,0-8.32,4.7c-.44,2.69-7.57,28.12-8.55,32.17,2.08,4.35,18.77,8.78,24.35,11.72,6.19,3.26,19.6-5.42,26.54-4.5A44.92,44.92,0,0,0,314.44,407.25Z"/><path class="cls-3" d="M262.28,429.68a202.34,202.34,0,0,0-8.8,36.55c-2.23,15.51-1.93,33.28,9.2,44.3C271.22,519,284,521.24,296,522.31c9.59.85,19.36,1.19,28.75-.91s18.49-6.89,24.17-14.66c8.49-11.61,8-27.71,3.51-41.38s-12.32-26-17.83-39.24a121.51,121.51,0,0,1-8.72-34.94c-.27-2.9.37-14.81-2-16.5-1.57-1.12-46.26-5.38-49.68,2.75-1.25,3-.58,15.4-1.2,18.75a98.25,98.25,0,0,1-2.82,11.08C267.82,414.83,264.83,422.19,262.28,429.68Z"/><path class="cls-4" d="M327.36,401.87q-1-5.31-1.51-10.69c-.27-2.9.71-15.16-1.66-16.86-.52-.37-7.09-.73-14-1.22l-9.51,3.27L290,372.69c-8.45.38-15.55,1.69-16.84,4.74s-.58,15.4-1.2,18.75c-.08.47-2.82,14-2.92,14.49C271.73,412.39,314,414,327.36,401.87Z"/><path class="cls-6" d="M119.07,229.84c-3.31-6.49-6.23-15.15-1.64-20.48,3.63-4.22,9.92-3.74,15.3-2.94L170.35,212c12.75,1.89,25.87,3.91,37.15,10.73s20.43,19.67,19.5,33.34c-1,14.44-12.39,25.19-23.8,32.77a161.78,161.78,0,0,1-19.95,11.32c-16.7,8-24.95-9.16-34.38-22A349.31,349.31,0,0,1,119.07,229.84Z"/><path class="cls-5" d="M152.42,273.84a111.66,111.66,0,0,1-18.57-33.42c-1.62-4.65-2.69-10.46.78-13.95a12.22,12.22,0,0,1,5.1-2.71c15.66-5,29.65-3.65,44.69,3,9.9,4.37,13.1,14,17.06,16.41,5,3,8.7-4.85,9.94.89A21.74,21.74,0,0,1,208,260.82c-2.33,3.35-5.57,6-8.81,8.45q-9.76,7.53-20.12,14.24c-4.35,2.83-3.79,14.75-8.57,11.66C165.56,292,156.11,278.41,152.42,273.84Z"/><path class="cls-3" d="M175.75,278.53a93.57,93.57,0,0,1,15.95-18.22c3-2.65,6.22-5.13,8.79-8.21a18.81,18.81,0,0,0,4.19-8.3,4.66,4.66,0,0,1-3.2-.65c-4-2.36-7.16-12-17.06-16.41A67.86,67.86,0,0,0,163.83,221c-3.22,1-6.32,1.89-9.26,3.79a27.59,27.59,0,0,0-4.47,3.59c-.84.82-2.7,4.13-3.61,4.44a16.5,16.5,0,0,1,8-.64A17.77,17.77,0,0,0,150.4,245a25.78,25.78,0,0,1,16.6-.07l-7.37,5.78,5.07.23a23.89,23.89,0,0,0-10.11,9,29.91,29.91,0,0,1,8.53,2.56,14.44,14.44,0,0,0-4.75,5.86A23.94,23.94,0,0,1,175.75,278.53Z"/><path class="cls-6" d="M369.77,136.69c-1.06-7.21-3.7-16-10.53-17.64-5.4-1.33-10.25,2.7-14.18,6.47l-27.43,26.34c-9.3,8.93-18.82,18.17-24.06,30.26S288.32,210,297,220.6c9.17,11.19,24.69,13.34,38.38,12.92a161,161,0,0,0,22.82-2.34c18.23-3.18,15-21.92,15.28-37.84A348.71,348.71,0,0,0,369.77,136.69Z"/><path class="cls-5" d="M368.08,191.88a111.94,111.94,0,0,0-4.22-38c-1.38-4.72-3.87-10.08-8.73-10.91a12.1,12.1,0,0,0-5.72.75c-15.66,5-26.28,14.2-34.7,28.32-5.54,9.29-2.54,19-4.39,23.26-2.37,5.37-9.91,1.09-7.59,6.48a21.75,21.75,0,0,0,12.47,11.72c3.85,1.38,8,1.63,12.08,1.78q12.33.48,24.66-.05c5.17-.22,11.62,9.83,13.73,4.54C367.87,214.25,367.73,197.74,368.08,191.88Z"/><path class="cls-3" d="M351.79,209.22a93.69,93.69,0,0,0-23.56-5.61c-4-.42-8-.58-11.92-1.6a18.67,18.67,0,0,1-8.22-4.34,4.7,4.7,0,0,0,2.23-2.38c1.85-4.22-1.15-14,4.39-23.26a68.11,68.11,0,0,1,13.47-16.59c3.22-1,6.25-2.12,9.75-2.27a27.4,27.4,0,0,1,5.72.33c1.16.19,4.59,1.81,5.52,1.53a16.41,16.41,0,0,0-6.9,4.12,17.81,17.81,0,0,1,10.73,8,25.84,25.84,0,0,0-13.57,9.56l9.36.44-4,3.13a24,24,0,0,1,13.46,1.47,29.93,29.93,0,0,0-5.47,7,14.34,14.34,0,0,1,7.27,2A23.88,23.88,0,0,0,351.79,209.22Z"/><path class="cls-3" d="M304.74,187.81c-32.12,2.13-59.26,14-59.26,14s-28.4,8.37-54.38,27.38-37.19,61.35-21.89,90.1c10.47,19.67,30.87,52.9,63,68.19s81.3,1.36,81.3,1.36,46.58-20.9,61.4-53.29,9.09-71,4.47-92.76C372.66,210.91,336.87,185.69,304.74,187.81Z"/><path class="cls-3" d="M175.19,378.06l14.07-2.86a69.33,69.33,0,0,1-4.21,14.74,120.7,120.7,0,0,0,16.61-5.32A15.57,15.57,0,0,1,197.08,397a263.79,263.79,0,0,0,84-5.06c5-1.11,10.41-2.75,12.92-7.17,2.22-3.93,1.32-9-1.14-12.82s-6.22-6.5-10-9c-19.81-13.06-41.88-22.24-63.8-31.34-6.25-2.59-12.6-5.21-19.31-6.05-4.62-.58-14.1-.68-16.64,4.33-1.93,3.79,1.48,10.22,2,14.11a43.7,43.7,0,0,1-1.41,18.33C182.85,365.51,179,377.3,175.19,378.06Z"/><path class="cls-3" d="M413.8,290.34l-12.53,7a70.64,70.64,0,0,0,12.81,8.42,122.4,122.4,0,0,1-16.05,6.8A15.51,15.51,0,0,0,409.59,319a263.72,263.72,0,0,1-67,51c-4.48,2.39-9.69,4.7-14.47,3-4.24-1.53-6.9-6-7.5-10.46s.47-9,1.71-13.32c6.49-22.83,17.22-44.18,27.9-65.38,3-6,6.14-12.17,10.69-17.19,3.12-3.45,10.24-9.71,15.43-7.57,3.93,1.61,5.55,8.71,7.67,12a43.82,43.82,0,0,0,13,13C399.81,285.83,410.45,292.22,413.8,290.34Z"/><path class="cls-4" d="M214.69,288.28c26.69-3.71,51.09,20.59,60.51,30,1.48,1.48,3.62,3.12,5.44,2.08-1-16.43-13.77-29.73-27.33-39.06-5.52-3.8-11.39-7.24-17.86-9-17-4.53-35.22,3.81-48,16-3.91,3.73-17.07,31.92-6.76,19.8C189.18,298.15,201.33,290.13,214.69,288.28Z"/><path class="cls-4" d="M323.94,246.65c-23.2,13.71-27.17,47.91-28.69,61.14-.24,2.08-.89,4.69-3,5-9.42-13.5-7.73-31.84-2.92-47.59,2-6.4,4.41-12.75,8.4-18.12,10.51-14.14,29.95-18.93,47.49-17.35,5.39.48,33.23,14.35,17.62,11.29C350.05,238.51,335.55,239.79,323.94,246.65Z"/><path class="cls-9" d="M394.38,287.21a48.77,48.77,0,0,0-20.6-.63,69.67,69.67,0,0,1,20.42,7.86c-10.08-1.58-22.75-2.78-32.21,1.16,9,2.85,20.4,8.49,26.29,15.07-18-8.28-44.27-12.37-64.76-9.21,2.23-.34,16.91-21.5,48.17-20.33C380.59,281.47,390,284,394.38,287.21Z"/><path class="cls-5" d="M301.73,187.43c32-3.14,68.62,20.94,76.38,52.56,1.07,4.38,4.45,25,5.48,30.53,0,0-12-45.54-52-35.57-25.38,6.33-34.52,20.17-35.55,40-.91,17.71,8.92,50.41,8.92,50.41l-13.5,11.38L242.94,203.28S269.69,190.58,301.73,187.43Z"/><path class="cls-10" d="M335.92,216.77c1.6,1,3.26,2.87,2.49,4.61s-3.09,1.78-4.9,1.44c-3.73-.7-7.32-2-11.09-2.5-3.61-.43-7.29,0-10.9-.42-1.13-.13-2.5-.59-2.64-1.71a2.21,2.21,0,0,1,.23-1.13,7.09,7.09,0,0,1,4.35-3.58C320.85,211,329.49,212.55,335.92,216.77Z"/><path class="cls-5" d="M191.15,229.32c-26,19-37.18,61.35-21.88,90.1,2.11,4,13.33,21.58,16.27,26.41,0,0-21.43-41.94,15-61.16,23.13-12.2,39.17-8,53.14,6.1,12.49,12.59,26.95,43.48,26.95,43.48l19.74-.83L245.53,201.94S217.13,210.3,191.15,229.32Z"/><path class="cls-10" d="M186.76,276.21c-.45,1.83-.43,4.26,1.3,5s3.42-.79,4.5-2.25c2.22-3,3.91-6.4,6.33-9.24s5.25-4.9,7.59-7.63c.72-.85,1.4-2.1.75-3a2.15,2.15,0,0,0-.93-.66,7,7,0,0,0-5.54.33C193.79,262,188.57,268.85,186.76,276.21Z"/><path class="cls-11" d="M204.88,229.68a15.79,15.79,0,0,0-4.11,4.08,5.44,5.44,0,0,0-.31,5.54c1.26,2,4.1,2.5,6.37,1.8s4.12-2.31,6-3.8a73.81,73.81,0,0,1,21.49-11.94c6.9-2.45,14.34-3.94,20.26-8.25,3-2.21,5.72-6.16,4-9.49-1-2-3.47-3.05-5.76-3.07a19.06,19.06,0,0,0-6.63,1.6C231.19,211.76,217.6,219.92,204.88,229.68Z"/><path class="cls-6" d="M322.92,263.26c4.09-3.81,15.36-6.77,22.51-4.46,2.09.67,11.64,3.25,13.65,2.36a4.34,4.34,0,0,1,2.24-.7,2.14,2.14,0,0,1,1.58,2.2,6,6,0,0,1-1,2.74c-1.31,2.33-2.7,4.6-4.17,6.83-4.75-3.82-11.74-5.06-18.46-3.68-20,4.11-22.41,20.3-22.27,29.9a.62.62,0,0,1-1.21.19,37.11,37.11,0,0,1-1-4C314.21,290.55,312.45,273,322.92,263.26Z"/><path class="cls-9" d="M202.15,370.39a48.85,48.85,0,0,1,13.28-15.76,69.82,69.82,0,0,0-7.77,20.45c5.55-8.56,13.1-18.8,22.35-23.22-3.9,8.63-7.28,20.86-6.3,29.64,5.83-18.94,20.31-41.24,36.33-54.39-1.75,1.43-27.31-1.74-47.28,22.32C207.08,356.29,202.71,365,202.15,370.39Z"/><path class="cls-6" d="M221.81,302.88a22.6,22.6,0,0,0-15.93,16.53c-.53,2.13-3.56,11.55-5.39,12.76-.67.43-1.47.78-1.8,1.5a2.14,2.14,0,0,0,1,2.52,6,6,0,0,0,2.85.66q4,.24,8,.18c-.64-6,2.09-12.61,6.88-17.52,14.27-14.59,29.2-7.87,37.19-2.56a.62.62,0,0,0,.82-.92,37.45,37.45,0,0,0-2.78-3C249.47,310.31,235.68,299.35,221.81,302.88Z"/><path class="cls-9" d="M324.33,309.93c-5.41-5.57-16.66-4.13-19-4.09a25.73,25.73,0,0,0-8.35,1.94c-10.37,3.78-24.13,11.78-24.19,11.84s-8.42,4.69-9.63,13.12a12.74,12.74,0,0,0,5.34,12.42c3.28,2.24,7.75,3,12.12,3.22,13.87.71,33.41-5.4,41.86-15.64C329.12,324.66,328.68,314.42,324.33,309.93Z"/><path class="cls-6" d="M309.46,305.94a9.52,9.52,0,0,0-6.41-3.58,19.29,19.29,0,0,0-7.47.68c-2.69.69-13.26,4.54-15.76,5.73a19.52,19.52,0,0,0-6.16,4.29,9.46,9.46,0,0,0-2.61,6.86,6.36,6.36,0,0,0,4.28,5.66,20.63,20.63,0,0,0,3.7.38,11,11,0,0,1,4.58,1.53c1.66,1,3,2.46,4.77,3.34,2.61,1.33,5.72,1.23,8.59.56,2.63-1.34,5.08-3.25,6.22-5.95.76-1.79.89-3.78,1.51-5.62a11,11,0,0,1,2.53-4.13,20.32,20.32,0,0,0,2.59-2.66A6.38,6.38,0,0,0,309.46,305.94Z"/><path class="cls-12" d="M276.16,316.61a2.65,2.65,0,0,0,2,3,3,3,0,0,0,2.32-1c.62-.61,1.08-1.35,1.64-2,1.72-2,4.26-3.18,6.74-4.18a5.3,5.3,0,0,0,1.89-1.08,1.78,1.78,0,0,0,.4-2c-1.21-2.1-6.68.07-8.33.85C280.36,311.38,276.51,313.57,276.16,316.61Z"/><path class="cls-6" d="M260,363.63s20.71,19.74,53.22,10c33.1-10,31.15-41.72,31.15-41.72s-15.68,14-36.32,20.8C287.2,359.59,260,363.63,260,363.63Z"/><path class="cls-7" d="M312.93,373.59c9.43-2.83,16-7.44,20.6-12.57a9.87,9.87,0,0,0-.91-1.4,13.12,13.12,0,0,0-7.43-4.16,15.46,15.46,0,0,0-8.32.15,9.56,9.56,0,0,0-6,5.48,15,15,0,0,0-15.29,3.12c-3.82,3.66-5.09,7.94-4.56,12A60.57,60.57,0,0,0,312.93,373.59Z"/><path class="cls-4" d="M259,371.19a9.13,9.13,0,0,1-3.89-8.58,7.56,7.56,0,0,1,6.64-6.36c-.74.05-2,2.83-2.3,3.43a24.37,24.37,0,0,0-1.26,3.3A10.89,10.89,0,0,0,259,371.19Z"/><path class="cls-4" d="M351.4,338.4a9.14,9.14,0,0,0-2-9.2,7.57,7.57,0,0,0-9.13-1.09c.62-.41,3.32,1.05,3.9,1.36a22.07,22.07,0,0,1,3,1.88A10.86,10.86,0,0,1,351.4,338.4Z"/><path class="cls-5" d="M411.9,479.61c8.58,0,18,1.48,23.61,8,6.17,7.18,5.52,17.83,3.92,27.15a219.52,219.52,0,0,1-7.14,29.38c-4,12.67-10.44,26.23-22.85,31a12.08,12.08,0,0,1-5.28,1c-4.94-.42-10.94,1.79-9.75-6.46,2.32-16.18-16.55-15.2-34.93-9.13-11.48,3.79-25.62,7.26-37.64,5.9-1.31-2.08.22-4.74,1.7-6.71C338,540.48,354.26,521.75,367,501.37,377.12,485.13,392.61,479.61,411.9,479.61Z"/><path class="cls-5" d="M195.9,536.94c-3.28,5.11-7.36,27.79,11,55.35,9.78,14.65,26.93,28.62,37.11,43,.63.88,2,2.78,3,3.25,1.25.61,1,0,2.32-.28l12.26-2.39c-.88-10.59-5.07-20.59-7.4-31a45.37,45.37,0,0,1,3.72-30.67c5.07-9.88,15.45-7.47,37.34-5.46,1.25.12-40.88-31.88-54.64-37.76C228.83,526,204.71,523.19,195.9,536.94Z"/><path class="cls-6" d="M250.79,646c5.42,9.15,10.12,18.62,12.16,28.5.61,3,1.06,6.16,3.41,8.63s7.41,3.84,10.58,1.93c2.34-1.4,2.74-3.9,2.71-6.14-.06-5.55-1.67-11-3.27-16.46-3.91-13.29-7.95-26.82-17.15-38.58-1.29-1.65-3.5-3.48-5.9-2.85-1.93.5-2.53,2.25-3.62,3.53-1.49,1.75-3.94,2.56-6.44,3.26-4.16,1.17-3.56,1.2-1.43,4.26Q246.63,638.9,250.79,646Z"/><path class="cls-1" d="M257.85,559.81c2.07,1.17,36.18,11.77,59.29,9.49,39.87-3.92,59.19-23.23,58.84-22.93S348.1,562,318.2,564,257.85,559.81,257.85,559.81Z"/><path class="cls-1" d="M379.51,498.74q-3.58,12.51-7.18,25,4.05-8.35,8.84-16.34c6.25-10.45,14.13-20.92,25.6-25a30.48,30.48,0,0,1,18.56-.53c-10-2.92-16.76-5.07-29.62-3.1-3.24.5-12.07,6.77-12.07,6.77S380.32,495.91,379.51,498.74Z"/><path class="cls-1" d="M370.27,558.08c4-.86,8.06-1.68,12.1-1.21s8.13,2.43,10.14,6,1.63,7.89,2.82,11.77c1.25-.33,1.84-1.73,2.2-3a27.94,27.94,0,0,0,.86-14.27c-1.12-4.68-4.17-9.06-8.6-11-4.13-1.78-7.52-2.6-11.76-1.12s-9.51,5.22-13.55,7.17c-10.72,5.16-35.94,7.76-44.48,16.51,16.2-1,23-4.43,29.51-6.07Q359.85,560.33,370.27,558.08Z"/><path class="cls-1" d="M291.32,565.41c-8.32-1.25-16.89-1.53-24.95-3.91-11.87-3.51-13.65-.74-17.53,6.14-2.94,5.21-2.89,11.59-2,17.51a72.21,72.21,0,0,0,8.6,25c0-.22-.05-.43-.08-.64-.41-1.52-.8-3-1.14-4.56a45.37,45.37,0,0,1,3.72-30.67c5.07-9.88,15.45-7.47,37.34-5.46C295.52,568.81,294,567.52,291.32,565.41Z"/><path class="cls-6" d="M388.61,592.31c-4.54,7.93-10.53,15.36-13.32,23.84-1,3-.59,7.44,3.12,7.93a7.5,7.5,0,0,0,4.45-1.22c8.68-4.83,14-12.8,19.06-20.47,7.83-11.93,15.66-23.88,22.32-36.3.8-1.48,1.51-3.37.24-4.59a4.12,4.12,0,0,0-2.32-1c-5.49-.75-10.09,3.69-15.6,4.44-9.8,1.35-11.88-1.53-12.42,7.23C393.69,579.52,392.44,585.62,388.61,592.31Z"/><path class="cls-11" d="M198.26,547.78c-.76,3.6.76,7.25,2.25,10.62l3.61,8.19c1,2.28,2.09,4.66,4,6.22s5.08,2,6.85.19c1.4-1.4,1.53-3.68.94-5.57a29.79,29.79,0,0,0-2.7-5.27,24.15,24.15,0,0,1-2.9-12.37,12,12,0,0,0-.28-4.63C208,539.46,199.24,543.14,198.26,547.78Z"/><path class="cls-11" d="M413.13,500.43c.31,2.67,1.11,5.27,1.53,7.92a29,29,0,0,1,.07,8.67c-.45,3.06-1.12,6.82,1.35,8.69a4.82,4.82,0,0,0,5,.2,9.51,9.51,0,0,0,3.63-3.73c2.67-4.47,3.35-9.82,3.82-15,.29-3.17.51-6.44-.41-9.49C424.67,486.26,411.7,488.28,413.13,500.43Z"/><path class="cls-13" d="M203.34,221l-5.6-119.68a5.57,5.57,0,0,1,9.72-4L290,189.46s-4.5,19.76-37.6,35.72C225.79,238,203.34,221,203.34,221Z"/><path class="cls-14" d="M279.52,206.1c8.68-9.27,10.34-16.53,10.34-16.53L207.34,97.48a5.34,5.34,0,0,0-.83-.76l-2.66-1.06a5.64,5.64,0,0,0-3.33.65C211.71,111.43,262.06,181.7,279.52,206.1Z"/><path class="cls-15" d="M233.49,198.25a121.53,121.53,0,0,0,27.09-41.36l-6.11-6.83a84.66,84.66,0,0,1-32.67,45.77c-5.76,4-12.41,7.31-19.27,8l.68,14.42C214.74,214.27,224.86,206.88,233.49,198.25Z"/><path class="cls-15" d="M199.47,138.38c10-4.8,18.05-13.25,23.94-23l-4.47-5a49.13,49.13,0,0,1-4.61,5.94A53.73,53.73,0,0,1,199,127.64Z"/><path class="cls-15" d="M244.6,139.05l-6-6.68a44.22,44.22,0,0,1-38,29.59l.89,19A45.61,45.61,0,0,0,216,173.27,96.42,96.42,0,0,0,244.6,139.05Z"/><path class="cls-16" d="M249.26,163.59l5,6.91a122,122,0,0,0,6.37-13.61l-6.11-6.83A84,84,0,0,1,249.26,163.59Z"/><path class="cls-16" d="M214.86,115.75l4.28,6a72.4,72.4,0,0,0,4.27-6.29l-4.47-5A49.24,49.24,0,0,1,214.86,115.75Z"/><path class="cls-16" d="M233.8,142.06l5,7a96.52,96.52,0,0,0,5.77-10l-6-6.68A45.13,45.13,0,0,1,233.8,142.06Z"/><path class="cls-15" d="M257.83,222.08A116.85,116.85,0,0,0,278.92,177l-6.17-6.88c-2.39,11.15-8.31,21.51-14.29,31.37-4,6.57-8.08,13.13-13.23,18.82a54.3,54.3,0,0,1-11.61,9.39,47.07,47.07,0,0,0,18.66-4.75C254.23,224,256.07,223,257.83,222.08Z"/><path class="cls-16" d="M272.75,170.1a74.07,74.07,0,0,1-6.36,17.25l6.35,8.86A116.12,116.12,0,0,0,278.92,177Z"/><path class="cls-17" d="M208.76,175.39c.26,2.58.59,5.32,2.35,7.34s5.49,2.83,7.4.91a5.17,5.17,0,0,0,1.29-3.24c.32-3.15-.58-6.28-1.38-9.36a166.82,166.82,0,0,1-5-30.87,20.93,20.93,0,0,0-1.27-7.16c-1.2-2.72-6.08-7-7.82-2.5-1.42,3.67,1,11.13,1.39,15Z"/><path class="cls-17" d="M210.7,193.56a8.87,8.87,0,0,0-1.13,4,9.58,9.58,0,0,0,3.44,7.95,7.68,7.68,0,0,0,8.44.68,8.92,8.92,0,0,0,3.78-5.62c.7-2.94.12-6.44-2.3-8.24C219.12,189.53,213.35,189,210.7,193.56Z"/><path class="cls-15" d="M521.33,300a17.44,17.44,0,0,0-4.48-2.95,26.68,26.68,0,0,1,4.1-8.4,22.92,22.92,0,0,1,2.89-3.18,29.64,29.64,0,0,0-9.46,10.48,26.92,26.92,0,0,0-8.9-2.1h0a38.89,38.89,0,0,0-5.16-.19c-11.18.37-23.1,4.95-28.57,14.63a46.52,46.52,0,0,0-46,45.86L440.35,353c-2-18.64,11.91-37.42,30-41.72A23.42,23.42,0,0,0,472.49,332c4,6.13,11.47,10.18,18.68,9s13.26-8.37,12.17-15.59c-1-6.82-7.41-11.56-13.84-14.06a44.61,44.61,0,0,0-9.42-2.53,21.63,21.63,0,0,1,3.41-3.55c6-5,14.06-6.83,21.82-6.46a33.07,33.07,0,0,1,7.38,1.15l0,0,.44.19-.46-.15a22.66,22.66,0,0,0-1,6c-.12,3.54.7,7.35,3.31,9.75s7.31,2.62,9.4-.24a5.4,5.4,0,0,0,1-3.53A15.24,15.24,0,0,0,521.33,300Zm-27,17.52c4.4,6,1.86,16.66-5.51,17.95-5.66,1-11-3.86-12.62-9.39A19.47,19.47,0,0,1,479,310.39C485,310.64,490.89,312.73,494.35,317.48Zm23.23-4c-1.5-1.12-1.86-3.19-2-5.06a35.36,35.36,0,0,1,.31-7.12,13.22,13.22,0,0,1,3.85,2.44,19,19,0,0,1,4.41,7.19c-.07.18-.14.36-.22.53C522.83,313.7,519.62,315,517.58,313.44Z"/><path class="cls-15" d="M390.3,28.74a17.19,17.19,0,0,0-5.12-1.6,26.79,26.79,0,0,1,1.62-9.21,23,23,0,0,1,1.9-3.85,29.56,29.56,0,0,0-6.2,12.69,26.56,26.56,0,0,0-9.12.44h0a38.62,38.62,0,0,0-5,1.25c-10.65,3.44-20.84,11.15-23.42,22a46.52,46.52,0,0,0-31.48,56.78l13.68-5.12c-7-17.37,1.1-39.25,17.28-48.39A23.42,23.42,0,0,0,352.24,73c5.53,4.78,13.83,6.62,20.43,3.47s10.43-11.7,7.38-18.35c-2.87-6.26-10.32-9-17.18-9.68a45.5,45.5,0,0,0-9.76.17,22.06,22.06,0,0,1,2.3-4.35c4.37-6.42,11.63-10.45,19.18-12.24a33,33,0,0,1,7.41-.93s0,0,0-.05l.47.06c-.16,0-.32,0-.48,0a23,23,0,0,0,.67,6c.87,3.43,2.71,6.87,5.87,8.46s7.76.49,9-2.83a5.5,5.5,0,0,0,0-3.67A15.18,15.18,0,0,0,390.3,28.74ZM369.22,53c5.9,4.59,6.39,15.5-.33,18.78-5.17,2.52-11.69-.66-14.73-5.54a19.5,19.5,0,0,1-1.67-15.8C358.3,49.05,364.58,49.42,369.22,53Zm21.21-10.3c-1.75-.66-2.67-2.56-3.29-4.32a35,35,0,0,1-1.67-6.93,13.06,13.06,0,0,1,4.36,1.28,18.85,18.85,0,0,1,6.24,5.69c0,.19,0,.38-.07.57C395.54,41.52,392.81,43.63,390.43,42.73Z"/><path class="cls-15" d="M12.47,324.36a5.44,5.44,0,0,0,2.69,2.49c3.27,1.36,7.18-1.28,8.16-4.68s-.31-7.09-2.25-10.05a22.55,22.55,0,0,0-4-4.59c-.11.12-.21.25-.32.36l.29-.38,0,0a33.22,33.22,0,0,1,5.71-4.82c6.43-4.34,14.31-6.95,22-5.82a21.44,21.44,0,0,1,4.76,1.26,45,45,0,0,0-6.73,7.06c-4.19,5.48-7.18,12.84-4.52,19.2,2.83,6.74,11.72,9.72,18.51,7s11-10.07,11.28-17.38a23.44,23.44,0,0,0-9-18.85c17.69-5.72,39.3,3.11,47.31,20.06l13-6.6a46.51,46.51,0,0,0-63.09-15.29c-9.71-5.42-22.27-3.14-32,2.36A39,39,0,0,0,20,298.54h0a26.65,26.65,0,0,0-6.5,6.42,29.58,29.58,0,0,0-13.54-4,21.66,21.66,0,0,1,4.12,1.21,26.51,26.51,0,0,1,7.87,5A17.42,17.42,0,0,0,9.7,312,15.24,15.24,0,0,0,12.47,324.36ZM51.3,298.92a19.47,19.47,0,0,1,10.49,11.93c1.54,5.54-.54,12.5-5.9,14.59-7,2.73-14.65-5-14-12.48C42.34,307.11,46.32,302.24,51.3,298.92ZM13.41,323.18c-.16-.11-.32-.22-.47-.34a18.82,18.82,0,0,1,0-8.44,13.1,13.1,0,0,1,2-4.07,34.91,34.91,0,0,1,4,5.91c.88,1.65,1.65,3.62.95,5.35C19,324,15.56,324.54,13.41,323.18Z"/><polygon class="cls-18" points="34.94 157.49 26.83 158.27 22.87 165.4 19.62 157.93 11.62 156.37 17.72 150.96 16.73 142.87 23.76 147.01 31.15 143.56 29.38 151.52 34.94 157.49"/><polygon class="cls-18" points="146.49 180.95 136.12 166.21 118.1 166.39 128.91 151.98 123.17 134.9 140.22 140.73 154.69 129.99 154.41 148.01 169.1 158.45 151.88 163.75 146.49 180.95"/><polygon class="cls-18" points="173.46 64.63 163.09 61.64 154.75 68.49 154.39 57.71 145.29 51.9 155.44 48.22 158.15 37.77 164.79 46.28 175.56 45.64 169.52 54.58 173.46 64.63"/><polygon class="cls-18" points="279.65 110.41 267.82 96.94 250.02 99.05 259.17 83.64 251.67 67.36 269.16 71.3 282.32 59.13 283.97 76.98 299.62 85.74 283.15 92.83 279.65 110.41"/><polygon class="cls-18" points="425.33 238.77 412.04 230.31 397.52 236.46 401.47 221.2 391.13 209.3 406.87 208.34 414.99 194.83 420.77 209.49 436.12 213.05 423.96 223.07 425.33 238.77"/><polygon class="cls-13" points="413.02 78.36 407.98 68.14 396.7 66.5 404.86 58.55 402.93 47.31 413.02 52.62 423.11 47.31 421.18 58.55 429.34 66.5 418.06 68.14 413.02 78.36"/><polygon class="cls-13" points="86.73 253.36 75.52 248.58 65.22 255.1 66.31 242.96 56.92 235.19 68.8 232.47 73.3 221.14 79.56 231.6 91.72 232.37 83.71 241.56 86.73 253.36"/><polygon class="cls-13" points="215.06 37.77 203.51 30.62 191.07 36.08 194.3 22.88 185.26 12.73 198.81 11.73 205.67 0 210.81 12.58 224.09 15.47 213.71 24.25 215.06 37.77"/><path class="cls-19" d="M151.19,550.37a14.32,14.32,0,0,0-2.06,6.25c0,2.21,1.05,4.6,3.11,5.41,3.14,1.23,6.33-1.55,8.46-4.16,9.09-11.19,16.51-24.71,29.4-31.15,4.53-2.26,9.59-3.55,13.62-6.6,1.34-1,2.66-2.59,2.2-4.21-.41-1.44-2-2.15-3.44-2.5-9.48-2.27-21.55,6.22-29,11.57A74.58,74.58,0,0,0,151.19,550.37Z"/><path class="cls-9" d="M277.11,451.67c-.73-9.07,1.81-18.18,6-26.25a23.85,23.85,0,0,0-8.2,10.25c-2.53-3-4.22-7.85-6.95-10.27-1.29,3.15,1.73,10.24,2.91,13.5a67.18,67.18,0,0,0,2.85,6.71C274.48,447.17,277,450,277.11,451.67Z"/><path class="cls-9" d="M310.26,436.58c-.73-9.07,1.81-18.18,6-26.25a23.82,23.82,0,0,0-8.2,10.26c-2.53-3-4.22-7.86-6.95-10.28-1.29,3.15,1.73,10.24,2.91,13.51a69.23,69.23,0,0,0,2.85,6.71C307.63,432.08,310.12,434.94,310.26,436.58Z"/><path class="cls-9" d="M292.3,485.86c-.73-9.07,1.81-18.18,6-26.26a24.09,24.09,0,0,0-8.2,10.26c-2.52-3-4.22-7.85-6.95-10.27-1.29,3.15,1.74,10.24,2.92,13.5a62.8,62.8,0,0,0,2.85,6.71C289.67,481.36,292.17,484.22,292.3,485.86Z"/><path class="cls-9" d="M325.72,472.72c-.72-9.06,1.81-18.17,6-26.25a24.09,24.09,0,0,0-8.2,10.26c-2.52-3-4.22-7.86-6.95-10.27-1.29,3.15,1.74,10.24,2.92,13.5a62.8,62.8,0,0,0,2.85,6.71C323.09,468.22,325.59,471.09,325.72,472.72Z"/><path class="cls-9" d="M309.94,514.91c-.59-7.42,1.49-14.89,4.91-21.5a19.67,19.67,0,0,0-6.72,8.4c-2.07-2.45-3.45-6.43-5.69-8.41-1.06,2.58,1.42,8.38,2.39,11.06a51.94,51.94,0,0,0,2.33,5.49C307.79,511.23,309.83,513.57,309.94,514.91Z"/><path class="cls-9" d="M271.25,506c-.59-7.42,1.49-14.89,4.91-21.5a19.67,19.67,0,0,0-6.72,8.4c-2.06-2.45-3.45-6.43-5.69-8.41-1.06,2.58,1.42,8.39,2.39,11.06a51.94,51.94,0,0,0,2.33,5.49C269.1,502.32,271.14,504.66,271.25,506Z"/><path class="cls-9" d="M339.54,497.29c-.59-7.43,1.48-14.89,4.91-21.51a19.64,19.64,0,0,0-6.72,8.41c-2.07-2.46-3.46-6.44-5.69-8.42-1.06,2.58,1.42,8.39,2.39,11.06a52.1,52.1,0,0,0,2.33,5.5C337.39,493.6,339.43,496,339.54,497.29Z"/></g></g></svg>