<svg xmlns="http://www.w3.org/2000/svg" viewBox="0 0 327.46 290.9"><defs><style>.cls-1{isolation:isolate;}.cls-2,.cls-6{fill:#6ea2e6;}.cls-2{opacity:0.18;}.cls-3{fill:#3d517d;}.cls-4{fill:#fc826a;}.cls-5{fill:#ffc182;}.cls-7{fill:#323e59;}.cls-8{fill:#5a70a1;}.cls-9{fill:#6887d9;}.cls-10{fill:#fff;}.cls-11{fill:#a877ba;}.cls-12{fill:#b681c9;}.cls-13{fill:#ffd98c;}.cls-14,.cls-22{fill:#e6e6e6;}.cls-15{fill:#c4c4c4;}.cls-16{fill:#ffc987;}.cls-17,.cls-19,.cls-20{fill:none;stroke-miterlimit:10;}.cls-17{stroke:#6ea2e6;}.cls-18{fill:#ff9670;}.cls-19{stroke:#ffc182;stroke-linecap:round;}.cls-20{stroke:#ff9670;stroke-width:2px;}.cls-21{fill:#d6d6d6;}.cls-22{mix-blend-mode:multiply;}</style></defs><g class="cls-1"><g id="Слой_2" data-name="Слой 2"><g id="Режим_изоляции" data-name="Режим изоляции"><rect class="cls-2" x="3.26" y="164.69" width="58.24" height="57.85" rx="5.64"/><rect class="cls-2" x="266.56" y="55.62" width="58.24" height="57.85" rx="5.64"/><rect class="cls-2" x="210.93" y="205.65" width="58.24" height="57.85" rx="5.64"/><rect class="cls-2" x="58.64" y="39.51" width="58.24" height="57.85" rx="5.64"/><rect class="cls-3" x="44.13" y="73.8" width="242.57" height="161.58" rx="5.64"/><circle class="cls-4" cx="276.47" cy="83.52" r="2.19"/><path class="cls-5" d="M269.18,83.52A2.19,2.19,0,1,1,267,81.34,2.19,2.19,0,0,1,269.18,83.52Z"/><path class="cls-6" d="M259.71,83.52a2.19,2.19,0,1,1-2.19-2.18A2.19,2.19,0,0,1,259.71,83.52Z"/><rect class="cls-3" x="54.04" y="95.53" width="58.24" height="57.85" rx="5.64"/><path class="cls-7" d="M56.36,151.18V102.32a4.5,4.5,0,0,1,4.5-4.49H110.1a4.44,4.44,0,0,1,1.79.37,4.51,4.51,0,0,0-4.11-2.67H58.54A4.5,4.5,0,0,0,54,100v48.85A4.5,4.5,0,0,0,56.76,153,4.49,4.49,0,0,1,56.36,151.18Z"/><path class="cls-8" d="M109.73,96a4.46,4.46,0,0,1,.74,2.47V147.3a4.5,4.5,0,0,1-4.5,4.5H56.73a4.54,4.54,0,0,1-1.95-.45,4.51,4.51,0,0,0,3.76,2h49.24a4.5,4.5,0,0,0,4.5-4.5V100A4.49,4.49,0,0,0,109.73,96Z"/><rect class="cls-3" x="123.15" y="162.62" width="58.24" height="57.85" rx="5.64"/><path class="cls-7" d="M125.47,218.26V169.41a4.51,4.51,0,0,1,4.5-4.5h49.24a4.62,4.62,0,0,1,1.79.37,4.51,4.51,0,0,0-4.11-2.66H127.65a4.5,4.5,0,0,0-4.5,4.49V216a4.49,4.49,0,0,0,2.71,4.12A4.45,4.45,0,0,1,125.47,218.26Z"/><path class="cls-8" d="M178.84,163.07a4.44,4.44,0,0,1,.74,2.47v48.85a4.49,4.49,0,0,1-4.5,4.49H125.84a4.4,4.4,0,0,1-2-.45,4.49,4.49,0,0,0,3.76,2h49.24a4.5,4.5,0,0,0,4.5-4.49V167.11A4.47,4.47,0,0,0,178.84,163.07Z"/><rect class="cls-9" x="54.41" y="162.62" width="58.24" height="57.85" rx="5.64"/><path class="cls-6" d="M108.15,220.46a4.49,4.49,0,0,0,4.5-4.49V167.11A4.47,4.47,0,0,0,110,163c-20.27,31.51-42.4,46.28-55.56,52.79V216a4.5,4.5,0,0,0,4.5,4.49Z"/><path class="cls-10" d="M93.6,194.63,92,193.68a.27.27,0,0,1-.14-.27,8.44,8.44,0,0,0,0-.87,9.69,9.69,0,0,0-.14-1.63.28.28,0,0,1,.13-.29l1.38-.79a1.19,1.19,0,0,0,.43-1.61L91.79,185a1.18,1.18,0,0,0-1.6-.43l-1.5.87a.29.29,0,0,1-.31,0A9,9,0,0,0,86,184.07a.28.28,0,0,1-.18-.27v-1.34a1.17,1.17,0,0,0-1.17-1.17H80.92a1.17,1.17,0,0,0-1.17,1.17v1.34a.28.28,0,0,1-.18.27,9.32,9.32,0,0,0-2.64,1.55.27.27,0,0,1-.32,0l-.84-.49a1.18,1.18,0,0,0-1.6.43l-1.88,3.25a1.17,1.17,0,0,0,.43,1.6l1,.56a.28.28,0,0,1,.14.28,8.66,8.66,0,0,0-.1,1.25,9.24,9.24,0,0,0,.23,2,.27.27,0,0,1-.13.31l-.73.42a1.18,1.18,0,0,0-.43,1.61l1.88,3.25a1.17,1.17,0,0,0,1.6.43l1.09-.63a.27.27,0,0,1,.3,0,9,9,0,0,0,2.74,1.33.27.27,0,0,1,.2.27v1.1a1.17,1.17,0,0,0,1.18,1.17H85.4a1.17,1.17,0,0,0,1.17-1.17V201a.29.29,0,0,1,.16-.25,8.88,8.88,0,0,0,2.21-1.5.3.3,0,0,1,.34,0l1.27.74a1.17,1.17,0,0,0,1.6-.43L94,196.23A1.17,1.17,0,0,0,93.6,194.63ZM83.16,197a4.45,4.45,0,1,1,4.45-4.45A4.45,4.45,0,0,1,83.16,197Z"/><rect class="cls-11" x="123.15" y="95.98" width="58.24" height="23.02" rx="4.7"/><path class="cls-12" d="M181.39,114.5v-14a4.51,4.51,0,0,0-2.09-3.8c-18.6,13.32-44.87,17.51-56.05,18.75a4.49,4.49,0,0,0,4.4,3.57h49.24A4.5,4.5,0,0,0,181.39,114.5Z"/><circle class="cls-10" cx="134.88" cy="107.62" r="6.72"/><path class="cls-10" d="M174.14,104.41h-26a.64.64,0,0,1-.64-.64h0a.64.64,0,0,1,.64-.65h26a.65.65,0,0,1,.65.65h0A.65.65,0,0,1,174.14,104.41Z"/><path class="cls-10" d="M174.14,108.78h-26a.64.64,0,0,1-.64-.65h0a.64.64,0,0,1,.64-.64h26a.65.65,0,0,1,.65.64h0A.65.65,0,0,1,174.14,108.78Z"/><path class="cls-10" d="M167.67,113.15H148.1a.64.64,0,0,1-.64-.65h0a.64.64,0,0,1,.64-.64h19.57a.64.64,0,0,1,.64.64h0A.65.65,0,0,1,167.67,113.15Z"/><rect class="cls-5" x="123.15" y="129.8" width="58.24" height="23.02" rx="4.7"/><path class="cls-13" d="M181.39,148.32v-14a4.51,4.51,0,0,0-2.09-3.8c-18.6,13.31-44.87,17.51-56.05,18.74a4.5,4.5,0,0,0,4.4,3.58h49.24A4.51,4.51,0,0,0,181.39,148.32Z"/><path class="cls-10" d="M141.6,141.44a6.72,6.72,0,1,1-6.72-6.72A6.72,6.72,0,0,1,141.6,141.44Z"/><path class="cls-10" d="M174.14,138.23h-26a.64.64,0,0,1-.64-.65h0a.64.64,0,0,1,.64-.64h26a.65.65,0,0,1,.65.64h0A.65.65,0,0,1,174.14,138.23Z"/><path class="cls-10" d="M174.14,142.6h-26a.64.64,0,0,1-.64-.65h0a.64.64,0,0,1,.64-.64h26a.65.65,0,0,1,.65.64h0A.65.65,0,0,1,174.14,142.6Z"/><path class="cls-10" d="M167.67,147H148.1a.64.64,0,0,1-.64-.65h0a.64.64,0,0,1,.64-.64h19.57a.64.64,0,0,1,.64.64h0A.65.65,0,0,1,167.67,147Z"/><rect class="cls-5" x="210.93" y="193.62" width="58.24" height="23.02" rx="4.7"/><path class="cls-13" d="M269.16,212.14v-14a4.49,4.49,0,0,0-2.09-3.8c-18.59,13.31-44.86,17.51-56,18.74a4.51,4.51,0,0,0,4.41,3.58h49.24A4.5,4.5,0,0,0,269.16,212.14Z"/><circle class="cls-10" cx="222.66" cy="205.26" r="6.72"/><path class="cls-10" d="M261.92,202.05h-26a.65.65,0,0,1-.65-.65h0a.65.65,0,0,1,.65-.64h26a.64.64,0,0,1,.64.64h0A.65.65,0,0,1,261.92,202.05Z"/><path class="cls-10" d="M261.92,206.42h-26a.65.65,0,0,1-.65-.65h0a.65.65,0,0,1,.65-.64h26a.64.64,0,0,1,.64.64h0A.65.65,0,0,1,261.92,206.42Z"/><path class="cls-10" d="M255.44,210.78H235.88a.64.64,0,0,1-.65-.64h0a.64.64,0,0,1,.65-.64h19.56a.64.64,0,0,1,.65.64h0A.64.64,0,0,1,255.44,210.78Z"/><rect class="cls-11" x="144.66" y="190.93" width="58.24" height="57.85" rx="5.64"/><path class="cls-12" d="M198.4,248.78a4.5,4.5,0,0,0,4.5-4.5V195.43a4.5,4.5,0,0,0-2.68-4.11c-20.27,31.51-42.4,46.28-55.56,52.79v.17a4.5,4.5,0,0,0,4.5,4.5Z"/><path class="cls-10" d="M156.65,223.38a1.52,1.52,0,0,1-.65-.58,1.55,1.55,0,0,1,0-1.7,1.81,1.81,0,0,1,.81-.63l9.68-4a.55.55,0,0,1,.21-.05.93.93,0,0,1,.73.44,1.55,1.55,0,0,1,.33.93.77.77,0,0,1-.52.79L158.88,222l8.41,3.55a.71.71,0,0,1,.41.74,1.75,1.75,0,0,1-.29.94.79.79,0,0,1-.64.45.51.51,0,0,1-.2,0Z"/><path class="cls-10" d="M171,229.26a.88.88,0,0,1-.33-.72,2.55,2.55,0,0,1,.11-.61l5.52-16.34a1.5,1.5,0,0,1,.42-.69.92.92,0,0,1,.63-.25,1.11,1.11,0,0,1,.75.28,1,1,0,0,1,.32.74,2.13,2.13,0,0,1-.11.6l-5.59,16.54a1,1,0,0,1-1,.73A1.1,1.1,0,0,1,171,229.26Z"/><path class="cls-10" d="M181.52,227.67a.8.8,0,0,1-.65-.45,1.75,1.75,0,0,1-.29-.94.71.71,0,0,1,.4-.74l8.41-3.55L181,218.58a.78.78,0,0,1-.54-.79,1.51,1.51,0,0,1,.34-.93.93.93,0,0,1,.72-.44.59.59,0,0,1,.22.05l9.68,4a1.81,1.81,0,0,1,.81.63,1.54,1.54,0,0,1,.27.87,1.6,1.6,0,0,1-.24.84,1.43,1.43,0,0,1-.65.57l-9.91,4.25A.51.51,0,0,1,181.52,227.67Z"/><path class="cls-14" d="M143.83,6.52h-15.3a2,2,0,0,0-2,2V33.3a2,2,0,0,0,2,2h18.8a2,2,0,0,0,2-2V11.77Z"/><path class="cls-15" d="M143.83,6.52l5.51,5.25h-4.52a1,1,0,0,1-1-1Z"/><path class="cls-6" d="M144.48,27.17h-13.1a.32.32,0,0,1-.32-.33h0a.32.32,0,0,1,.32-.32h13.1a.32.32,0,0,1,.32.32h0A.32.32,0,0,1,144.48,27.17Z"/><path class="cls-6" d="M144.48,23.58h-13.1a.32.32,0,0,1-.32-.32h0a.32.32,0,0,1,.32-.33h13.1a.32.32,0,0,1,.32.33h0A.32.32,0,0,1,144.48,23.58Z"/><path class="cls-6" d="M144.48,20h-13.1a.32.32,0,0,1-.32-.32h0a.32.32,0,0,1,.32-.32h13.1a.32.32,0,0,1,.32.32h0A.32.32,0,0,1,144.48,20Z"/><path class="cls-6" d="M144.48,16.41h-13.1a.32.32,0,0,1-.32-.33h0a.32.32,0,0,1,.32-.32h13.1a.32.32,0,0,1,.32.32h0A.32.32,0,0,1,144.48,16.41Z"/><path class="cls-6" d="M141.22,30.34h-9.84a.32.32,0,0,1-.32-.33h0a.32.32,0,0,1,.32-.32h9.84a.32.32,0,0,1,.33.32h0A.33.33,0,0,1,141.22,30.34Z"/><path class="cls-16" d="M144.82,22.36,142.7,24.6l-17.69,0a2.51,2.51,0,0,0-2.49,2.5l0,18.31a2.49,2.49,0,0,0,2.5,2.49l27.79-.08a2.49,2.49,0,0,0,2.49-2.5l0-18.71V23.27a1.36,1.36,0,0,0-1.37-1.36l-8.11,0A1.35,1.35,0,0,0,144.82,22.36Z"/><path class="cls-6" d="M155.32,32.2h3.76a1.61,1.61,0,0,1,1.61,1.61v3.38a1.61,1.61,0,0,1-1.61,1.61h-3.76a0,0,0,0,1,0,0V32.2A0,0,0,0,1,155.32,32.2Z"/><path class="cls-6" d="M215.6,67.81h3.76A1.61,1.61,0,0,1,221,69.42V72.8a1.61,1.61,0,0,1-1.61,1.61H215.6a0,0,0,0,1,0,0v-6.6A0,0,0,0,1,215.6,67.81Z" transform="translate(147.17 289.4) rotate(-90)"/><path class="cls-17" d="M158,35.5h50.13a10.14,10.14,0,0,1,10.15,10.15V73.8"/><path class="cls-6" d="M286.69,98.29h3.76a1.61,1.61,0,0,1,1.61,1.61v3.38a1.61,1.61,0,0,1-1.61,1.61h-3.76a0,0,0,0,1,0,0v-6.6A0,0,0,0,1,286.69,98.29Z"/><path class="cls-6" d="M308.36,237.3h3.76a1.61,1.61,0,0,1,1.61,1.61v3.38a1.61,1.61,0,0,1-1.61,1.61h-3.76a0,0,0,0,1,0,0v-6.6A0,0,0,0,1,308.36,237.3Z" transform="translate(70.44 551.64) rotate(-90)"/><path class="cls-17" d="M289.38,101.59h11.51A10.16,10.16,0,0,1,311,111.75V243.28"/><rect class="cls-4" x="104.86" y="254.17" width="19.83" height="19.7" rx="1.61"/><path class="cls-18" d="M123.15,273.86a1.52,1.52,0,0,0,1.53-1.53V255.7a1.52,1.52,0,0,0-.91-1.4c-6.9,10.73-14.43,15.76-18.91,18v.06a1.52,1.52,0,0,0,1.53,1.53Z"/><path class="cls-10" d="M109.35,268.16h5.39a.55.55,0,0,0,.46-.86l-2.7-4a.55.55,0,0,0-.91,0l-2.69,4A.55.55,0,0,0,109.35,268.16Z"/><path class="cls-10" d="M114.41,268.16h5.39a.55.55,0,0,0,.46-.86l-2.7-4a.55.55,0,0,0-.91,0l-2.69,4A.55.55,0,0,0,114.41,268.16Z"/><path class="cls-10" d="M115.55,260.91a1,1,0,0,1-2.07,0,1,1,0,1,1,2.07,0Z"/><path class="cls-16" d="M120.65,265.32l-2.12,2.24-17.69.05a2.49,2.49,0,0,0-2.49,2.49l.05,18.31a2.5,2.5,0,0,0,2.5,2.49l27.8-.07a2.51,2.51,0,0,0,2.49-2.5l-.05-18.72v-3.37a1.37,1.37,0,0,0-1.38-1.37l-8.1,0A1.39,1.39,0,0,0,120.65,265.32Z"/><path class="cls-6" d="M131.15,276.65h3.76a1.61,1.61,0,0,1,1.61,1.61v3.38a1.61,1.61,0,0,1-1.61,1.61h-3.76a0,0,0,0,1,0,0v-6.6A0,0,0,0,1,131.15,276.65Z"/><path class="cls-6" d="M238.08,234.76h3.76a1.61,1.61,0,0,1,1.61,1.61v3.38a1.61,1.61,0,0,1-1.61,1.61h-3.76a0,0,0,0,1,0,0v-6.6A0,0,0,0,1,238.08,234.76Z" transform="translate(478.83 -2.71) rotate(90)"/><path class="cls-17" d="M133.83,280h96.79a10.15,10.15,0,0,0,10.15-10.15V235.38"/><path class="cls-6" d="M22.39,33.26h3.76a1.61,1.61,0,0,1,1.61,1.61v3.38a1.61,1.61,0,0,1-1.61,1.61H22.39a0,0,0,0,1,0,0v-6.6A0,0,0,0,1,22.39,33.26Z" transform="translate(61.63 11.49) rotate(90)"/><path class="cls-6" d="M88.37,67.81h3.76a1.61,1.61,0,0,1,1.61,1.61V72.8a1.61,1.61,0,0,1-1.61,1.61H88.37a0,0,0,0,1,0,0v-6.6A0,0,0,0,1,88.37,67.81Z" transform="translate(19.94 162.17) rotate(-90)"/><path class="cls-17" d="M25.07,36.56V45A10.16,10.16,0,0,0,35.22,55.1H81.76a9.29,9.29,0,0,1,9.3,9.29V71.7"/><path class="cls-14" d="M229.33,97H199.51a3.91,3.91,0,0,0-3.91,3.91v48.27a3.91,3.91,0,0,0,3.91,3.9h36.63a3.91,3.91,0,0,0,3.91-3.9V107.19Z"/><path class="cls-10" d="M229.33,95.12H199.51A3.91,3.91,0,0,0,195.6,99v48.27a3.91,3.91,0,0,0,3.91,3.91h36.63a3.91,3.91,0,0,0,3.91-3.91V105.35Z"/><path class="cls-14" d="M229.33,95.12l10.72,10.23h-8.8a1.93,1.93,0,0,1-1.92-1.93Z"/><path class="cls-6" d="M230.58,135.34H205.07a.63.63,0,0,1-.63-.63h0a.63.63,0,0,1,.63-.63h25.51a.63.63,0,0,1,.63.63h0A.63.63,0,0,1,230.58,135.34Z"/><path class="cls-6" d="M230.58,128.35H205.07a.63.63,0,0,1-.63-.63h0a.63.63,0,0,1,.63-.63h25.51a.63.63,0,0,1,.63.63h0A.63.63,0,0,1,230.58,128.35Z"/><path class="cls-6" d="M230.58,121.36H205.07a.63.63,0,0,1-.63-.63h0a.63.63,0,0,1,.63-.63h25.51a.63.63,0,0,1,.63.63h0A.63.63,0,0,1,230.58,121.36Z"/><path class="cls-6" d="M230.58,114.37H205.07a.63.63,0,0,1-.63-.63h0a.63.63,0,0,1,.63-.63h25.51a.63.63,0,0,1,.63.63h0A.63.63,0,0,1,230.58,114.37Z"/><path class="cls-6" d="M224.24,141.52H205.07a.63.63,0,0,1-.63-.63h0a.64.64,0,0,1,.63-.64h19.17a.64.64,0,0,1,.63.64h0A.63.63,0,0,1,224.24,141.52Z"/><circle class="cls-6" cx="201.48" cy="101.33" r="2.46"/><path class="cls-14" d="M258.46,126.24H228.64a3.91,3.91,0,0,0-3.9,3.91v48.26a3.91,3.91,0,0,0,3.9,3.91h36.63a3.91,3.91,0,0,0,3.91-3.91V136.47Z"/><path class="cls-10" d="M258.46,124.39H228.64a3.91,3.91,0,0,0-3.9,3.91v48.27a3.91,3.91,0,0,0,3.9,3.9h36.63a3.91,3.91,0,0,0,3.91-3.9V134.62Z"/><path class="cls-14" d="M258.46,124.39l10.72,10.23h-8.79a1.92,1.92,0,0,1-1.93-1.92Z"/><path class="cls-6" d="M259.72,164.62H234.2a.63.63,0,0,1-.63-.63h0a.64.64,0,0,1,.63-.64h25.52a.64.64,0,0,1,.63.64h0A.63.63,0,0,1,259.72,164.62Z"/><path class="cls-6" d="M259.72,157.63H234.2a.63.63,0,0,1-.63-.63h0a.63.63,0,0,1,.63-.63h25.52a.63.63,0,0,1,.63.63h0A.63.63,0,0,1,259.72,157.63Z"/><path class="cls-6" d="M259.72,150.64H234.2a.63.63,0,0,1-.63-.63h0a.63.63,0,0,1,.63-.63h25.52a.63.63,0,0,1,.63.63h0A.63.63,0,0,1,259.72,150.64Z"/><path class="cls-6" d="M259.72,143.65H234.2a.63.63,0,0,1-.63-.63h0a.63.63,0,0,1,.63-.63h25.52a.63.63,0,0,1,.63.63h0A.63.63,0,0,1,259.72,143.65Z"/><path class="cls-6" d="M253.37,170.79H234.2a.63.63,0,0,1-.63-.63h0a.63.63,0,0,1,.63-.63h19.17a.63.63,0,0,1,.63.63h0A.63.63,0,0,1,253.37,170.79Z"/><path class="cls-6" d="M233.07,130.6a2.46,2.46,0,1,1-2.45-2.45A2.46,2.46,0,0,1,233.07,130.6Z"/><rect class="cls-9" x="195.54" y="163.07" width="18.34" height="18.22" rx="1.59"/><path class="cls-6" d="M212.47,181.29a1.42,1.42,0,0,0,1.41-1.42V164.48a1.41,1.41,0,0,0-.84-1.29c-6.38,9.92-13.35,14.57-17.5,16.63v.05a1.43,1.43,0,0,0,1.42,1.42Z"/><path class="cls-10" d="M204.43,174.33l2.1-2.1a.35.35,0,0,1,.36-.08,2.92,2.92,0,0,0,2.87-.63,2.84,2.84,0,0,0,.89-2,.35.35,0,0,0-.59-.26l-1,.95c-.24.25-.46.25-.6.11l-1.58-1.58a.34.34,0,0,1,0-.49l1.06-1.06a.35.35,0,0,0-.26-.6,2.86,2.86,0,0,0-2.64,3.76.38.38,0,0,1-.08.37l-2.11,2.1a.34.34,0,0,1-.36.08,2.9,2.9,0,0,0-2.86.63,2.86,2.86,0,0,0-.9,2,.35.35,0,0,0,.6.26l1.06-1.06a.34.34,0,0,1,.49,0l1.59,1.58a.36.36,0,0,1,0,.49l-1.07,1.06a.36.36,0,0,0,.26.6,2.9,2.9,0,0,0,2-.84,2.85,2.85,0,0,0,.69-2.92A.34.34,0,0,1,204.43,174.33Z"/><path class="cls-19" d="M255.34,125.34v6.51c0,1.29-.47,3.09-2.89,3.09s-2.92-1.8-2.92-3.09v-9.93"/><path class="cls-19" d="M255.34,130v-6.48a2,2,0,0,0-2-2,2,2,0,0,0-2,2v5.08"/><path class="cls-19" d="M251.37,126.42v4.66c0,.49-.08,1.65,1,1.65s1.14-1.16,1.14-1.65v-5.74"/><path class="cls-19" d="M225.91,95.08v6.51c0,1.29-.46,3.1-2.88,3.1s-2.93-1.81-2.93-3.1V91.66"/><path class="cls-19" d="M225.91,99.75V93.27a2,2,0,1,0-4,0v5.08"/><path class="cls-19" d="M221.94,96.16v4.66c0,.49-.08,1.65,1,1.65s1.14-1.16,1.14-1.65V95.08"/><path class="cls-6" d="M270.54,36.61H309a9.09,9.09,0,1,0,0-18.18h-.22a18.59,18.59,0,0,0-35-5.36,12.25,12.25,0,0,0-3.17-.43,12,12,0,0,0,0,24Z"/><path class="cls-10" d="M295,26.08H283.41a.52.52,0,0,1-.45-.79l5.79-9.62a.52.52,0,0,1,.9,0l5.77,9.63A.53.53,0,0,1,295,26.08Z"/><rect class="cls-10" x="287.82" y="19.68" width="2.73" height="9.9" rx="0.94" transform="translate(578.35 49.53) rotate(-179.95)"/><path class="cls-6" d="M12,286.77H50.4a9.09,9.09,0,1,0,0-18.17h-.22a18.6,18.6,0,0,0-35-5.36,11.71,11.71,0,0,0-3.16-.44,12,12,0,1,0,0,24Z"/><path class="cls-10" d="M24.85,269.07l11.56,0a.52.52,0,0,1,.45.79l-5.79,9.61a.52.52,0,0,1-.9,0l-5.77-9.63A.53.53,0,0,1,24.85,269.07Z"/><rect class="cls-10" x="29.27" y="265.57" width="2.73" height="9.9" rx="0.94"/><rect class="cls-4" x="14.04" y="83.36" width="58.24" height="57.85" rx="5.64"/><path class="cls-18" d="M67.78,141.21a4.5,4.5,0,0,0,4.49-4.5V87.86a4.49,4.49,0,0,0-2.67-4.11C49.33,115.26,27.2,130,14,136.54v.17a4.5,4.5,0,0,0,4.5,4.5Z"/><rect class="cls-20" x="10.46" y="79.81" width="65.39" height="64.95" rx="5.64"/><path class="cls-10" d="M27.24,124.45H43.08a1.61,1.61,0,0,0,1.33-2.51l-7.92-11.66a1.61,1.61,0,0,0-2.66,0l-7.92,11.66A1.61,1.61,0,0,0,27.24,124.45Z"/><path class="cls-10" d="M42.1,124.45H57.94a1.61,1.61,0,0,0,1.33-2.51l-7.92-11.66a1.61,1.61,0,0,0-2.66,0l-7.92,11.66A1.61,1.61,0,0,0,42.1,124.45Z"/><path class="cls-10" d="M45.46,103.16a3,3,0,1,1-3-3A3,3,0,0,1,45.46,103.16Z"/><path class="cls-10" d="M83.56,136.91,71.65,148.79a.76.76,0,0,1-1.27-.35l-3.95-15.86a.76.76,0,0,1,.93-.92l15.85,4A.76.76,0,0,1,83.56,136.91Z"/><rect class="cls-10" x="77.28" y="137.31" width="3.97" height="14.42" rx="0.94" transform="translate(237.46 190.8) rotate(135.05)"/><circle class="cls-6" cx="200.91" cy="279.95" r="9.17" transform="translate(-113.17 421.7) rotate(-78.62)"/><path class="cls-10" d="M203.22,275.15h0a2,2,0,0,0-.19-.35l-.05-.07a1.27,1.27,0,0,0-.21-.25l-.05-.06a2,2,0,0,0-.66-.44l-.09,0a1.4,1.4,0,0,0-.29-.09l-.11,0a1.83,1.83,0,0,0-.4-.05h-.51a1.75,1.75,0,0,0-.4.05l-.11,0a1.71,1.71,0,0,0-.3.09.2.2,0,0,0-.08,0,2,2,0,0,0-.66.44l-.06.06a1.69,1.69,0,0,0-.2.25.18.18,0,0,0,0,.07,2,2,0,0,0-.2.35h0a2.29,2.29,0,0,0-.17.87v1.35a.39.39,0,0,0,.39.39.4.4,0,0,0,.4-.39V276a1.32,1.32,0,0,1,.12-.57,1.05,1.05,0,0,1,.18-.31l.07-.08a1.22,1.22,0,0,1,.27-.24l0,0a1.11,1.11,0,0,1,.29-.14l.1,0a1.51,1.51,0,0,1,.37-.06h.51a1.59,1.59,0,0,1,.37.06l.09,0a1,1,0,0,1,.3.14l0,0a1.22,1.22,0,0,1,.27.24l.06.08a1.08,1.08,0,0,1,.19.31,1.32,1.32,0,0,1,.12.57v1.35a.4.4,0,0,0,.79,0V276A2.12,2.12,0,0,0,203.22,275.15Z"/><path class="cls-10" d="M200.91,282.88a.4.4,0,0,1-.39-.4v-1.39a.4.4,0,0,1,.79,0v1.39A.4.4,0,0,1,200.91,282.88Z"/><path class="cls-10" d="M203.11,285.53h-4.39a2,2,0,0,1-2-2v-4.39a2,2,0,0,1,2-2h4.39a2,2,0,0,1,2,2v4.39A2,2,0,0,1,203.11,285.53ZM198.72,278a1.18,1.18,0,0,0-1.18,1.19v4.39a1.18,1.18,0,0,0,1.18,1.18h4.39a1.18,1.18,0,0,0,1.18-1.18v-4.39a1.18,1.18,0,0,0-1.18-1.19Z"/><path class="cls-10" d="M201.75,281a.85.85,0,0,1-.84.84.84.84,0,0,1-.83-.84.83.83,0,0,1,.83-.83A.84.84,0,0,1,201.75,281Z"/><circle class="cls-6" cx="214.98" cy="37.94" r="9.17" transform="translate(128.85 238.54) rotate(-76.77)"/><path class="cls-10" d="M217.29,33.14h0a2,2,0,0,0-.19-.35l0-.07a1.27,1.27,0,0,0-.21-.25l-.05-.06a2.27,2.27,0,0,0-.66-.45l-.09,0a1.4,1.4,0,0,0-.29-.09l-.11,0a2.71,2.71,0,0,0-.41,0h-.5a2.58,2.58,0,0,0-.4,0l-.11,0a1.49,1.49,0,0,0-.3.09l-.09,0a2.23,2.23,0,0,0-.65.45l-.06.05a2.56,2.56,0,0,0-.2.26l-.06.07a2.89,2.89,0,0,0-.19.35h0a2.29,2.29,0,0,0-.17.87v1.35a.39.39,0,0,0,.39.39.4.4,0,0,0,.4-.39V34a1.48,1.48,0,0,1,.11-.57,1.35,1.35,0,0,1,.19-.31l.07-.09a1.86,1.86,0,0,1,.26-.23l0,0a1.35,1.35,0,0,1,.3-.14l.1,0a1.15,1.15,0,0,1,.37-.06h.5a1.21,1.21,0,0,1,.38.06l.09,0a1,1,0,0,1,.3.14l0,0a1.43,1.43,0,0,1,.26.23l.07.09a1.08,1.08,0,0,1,.19.31,1.32,1.32,0,0,1,.12.57v1.35a.39.39,0,0,0,.39.39.4.4,0,0,0,.4-.39V34A2.29,2.29,0,0,0,217.29,33.14Z"/><path class="cls-10" d="M215,40.86a.38.38,0,0,1-.39-.39V39.08a.39.39,0,0,1,.39-.39.4.4,0,0,1,.4.39v1.39A.39.39,0,0,1,215,40.86Z"/><path class="cls-10" d="M217.18,43.52h-4.39a2,2,0,0,1-2-2v-4.4a2,2,0,0,1,2-2h4.39a2,2,0,0,1,2,2v4.4A2,2,0,0,1,217.18,43.52ZM212.79,36a1.18,1.18,0,0,0-1.19,1.18v4.4a1.18,1.18,0,0,0,1.19,1.18h4.39a1.18,1.18,0,0,0,1.18-1.18v-4.4A1.18,1.18,0,0,0,217.18,36Z"/><path class="cls-10" d="M215.82,39a.85.85,0,0,1-.84.84.84.84,0,0,1-.83-.84.83.83,0,0,1,.83-.83A.84.84,0,0,1,215.82,39Z"/><rect class="cls-21" x="298.93" y="254.3" width="24.12" height="15.35" rx="1.91"/><path class="cls-22" d="M321.66,254.3H300.33a1.4,1.4,0,0,0-1.3.89l11.13,10.14a1.32,1.32,0,0,0,1.66,0L323,255.19A1.38,1.38,0,0,0,321.66,254.3Z"/><path class="cls-14" d="M321.66,254.3H300.33a1.4,1.4,0,0,0-1.3.89l11.13,8.67a1.32,1.32,0,0,0,1.66,0L323,255.19A1.38,1.38,0,0,0,321.66,254.3Z"/><rect class="cls-10" x="246.96" y="95.4" width="22.2" height="14.13" rx="1.91"/><path class="cls-22" d="M267.88,95.4H248.25a1.29,1.29,0,0,0-1.2.82l10.25,9.34a1.22,1.22,0,0,0,1.53,0l10.24-9.34A1.26,1.26,0,0,0,267.88,95.4Z"/><path class="cls-10" d="M267.88,95.4H248.25a1.29,1.29,0,0,0-1.2.82l10.25,8a1.22,1.22,0,0,0,1.53,0l10.24-8A1.26,1.26,0,0,0,267.88,95.4Z"/><path class="cls-16" d="M316.92,265.29l-2.12,2.24-17.69.05a2.49,2.49,0,0,0-2.49,2.5l.05,18.3a2.51,2.51,0,0,0,2.5,2.49l27.8-.07a2.51,2.51,0,0,0,2.49-2.5l0-18.72v-3.37a1.37,1.37,0,0,0-1.38-1.37l-8.1,0A1.39,1.39,0,0,0,316.92,265.29Z"/><rect class="cls-3" x="8.12" y="14.76" width="33.9" height="19.11" rx="4.06"/><rect class="cls-4" x="11.18" y="18.9" width="2.62" height="2.1" rx="0.96"/><rect class="cls-4" x="21.67" y="18.9" width="2.62" height="2.1" rx="0.96"/><rect class="cls-5" x="15.48" y="18.9" width="4.5" height="2.1" rx="0.96"/><rect class="cls-4" x="26.85" y="18.9" width="11.06" height="2.1" rx="0.96"/><rect class="cls-5" x="11.18" y="27.64" width="2.62" height="2.1" rx="0.96"/><rect class="cls-5" x="36.34" y="27.64" width="2.62" height="2.1" rx="0.96"/><rect class="cls-4" x="15.48" y="27.64" width="4.5" height="2.1" rx="0.96"/><rect class="cls-5" x="24.55" y="27.64" width="9.59" height="2.1" rx="0.96"/><rect class="cls-5" x="11.18" y="23.23" width="2.62" height="2.1" rx="0.96"/><rect class="cls-4" x="15.25" y="23.23" width="2.62" height="2.1" rx="0.96"/><rect class="cls-5" x="19.85" y="23.23" width="6.45" height="2.1" rx="0.96"/><rect class="cls-3" x="8.12" width="33.9" height="12.84" rx="4.06"/><rect class="cls-5" x="11.18" y="7.57" width="2.62" height="2.1" rx="0.96"/><rect class="cls-5" x="36.34" y="7.57" width="2.62" height="2.1" rx="0.96"/><rect class="cls-4" x="15.48" y="7.57" width="4.5" height="2.1" rx="0.96"/><rect class="cls-5" x="24.55" y="7.57" width="9.59" height="2.1" rx="0.96"/><rect class="cls-5" x="11.18" y="3.16" width="2.62" height="2.1" rx="0.96"/><rect class="cls-4" x="15.25" y="3.16" width="2.62" height="2.1" rx="0.96"/><rect class="cls-5" x="19.85" y="3.16" width="6.45" height="2.1" rx="0.96"/></g></g></g></svg>