<svg xmlns="http://www.w3.org/2000/svg" viewBox="0 0 169.49 169.58"><defs><style>.cls-1{fill:#2287ff;stroke:#126fcc;stroke-width:4.91px;}.cls-1,.cls-3,.cls-5{stroke-miterlimit:10;}.cls-2{fill:#fff;opacity:0.8;}.cls-3{fill:none;stroke:#c4bdc9;stroke-width:5.73px;}.cls-4{fill:#c4bdc9;}.cls-5{fill:#ff451a;stroke:#dd0e0e;stroke-width:3.48px;}</style></defs><g id="Слой_2" data-name="Слой 2"><g id="Layer_1" data-name="Layer 1"><path class="cls-1" d="M73.73,75a15.94,15.94,0,1,1,0,22.54A15.95,15.95,0,0,1,73.73,75Z"/><path class="cls-2" d="M89.18,81.81a3.8,3.8,0,1,1,0-5.37A3.8,3.8,0,0,1,89.18,81.81Z"/><path class="cls-3" d="M73.12,133.35c-20.4,13.24-38.21,18-45.69,10.47C16.11,132.5,32.71,97.55,64.51,65.75s66.74-48.39,78.06-37.07S137.29,75,105.5,106.75a203.29,203.29,0,0,1-32.38,26.6"/><path class="cls-4" d="M68.23,5.73c15.22,0,35.33,30.62,46.29,71.5,11.63,43.44,8.53,82-6.93,86.15a10.89,10.89,0,0,1-2.79.36c-15.22,0-35.33-30.62-46.28-71.51C46.88,48.8,50,10.23,65.45,6.09a10.82,10.82,0,0,1,2.78-.36m0-5.73h0A16.51,16.51,0,0,0,64,.56C56.89,2.45,48.05,9.79,46.11,34,44.75,50.88,47.19,72.1,53,93.72c5.43,20.25,13.34,39,22.28,52.72,9.79,15.06,20,23,29.54,23a16.51,16.51,0,0,0,4.27-.56c7.07-1.89,15.91-9.23,17.86-33.41,1.36-16.91-1.09-38.13-6.88-59.75-5.43-20.25-13.34-39-22.27-52.72C88,8,77.77,0,68.24,0Z"/><path class="cls-4" d="M43.49,51.46c14.1,0,31,2.3,48.76,7,43.43,11.64,75.28,33.61,71.13,49.07-2.45,9.15-16.95,14-37.39,14-14.1,0-31-2.29-48.75-7C33.81,102.87,2,80.9,6.1,65.43c2.46-9.15,17-14,37.39-14m0-5.73v0C19,45.73,3.72,52.2.57,64c-1.9,7.07,0,18.39,20,32.17,14,9.63,33.55,18.13,55.18,23.92,17.68,4.74,35.05,7.24,50.23,7.24,24.54,0,39.78-6.47,42.93-18.21,1.89-7.08,0-18.4-20-32.17C135,67.27,115.35,58.77,93.73,53c-17.68-4.74-35.05-7.25-50.23-7.25Z"/><path class="cls-5" d="M148.11,80.26a8.07,8.07,0,1,1,0,11.41A8.07,8.07,0,0,1,148.11,80.26Z"/><path class="cls-2" d="M153.82,84.92a2.68,2.68,0,0,1-2.61-2.62,2.48,2.48,0,0,1,2.49-2.56,2.66,2.66,0,0,1,2.61,2.61A2.47,2.47,0,0,1,153.82,84.92Z"/><path class="cls-5" d="M69.68,45.85a8.07,8.07,0,1,1,0,11.41A8.08,8.08,0,0,1,69.68,45.85Z"/><path class="cls-2" d="M75.2,51.36a2.7,2.7,0,0,1-2.62-2.62,2.48,2.48,0,0,1,2.5-2.56,2.66,2.66,0,0,1,2.61,2.61A2.48,2.48,0,0,1,75.2,51.36Z"/><path class="cls-5" d="M86.32,154.07a8.07,8.07,0,1,1,0,11.41A8.07,8.07,0,0,1,86.32,154.07Z"/><path class="cls-2" d="M92.7,160.11a2.67,2.67,0,0,1-2.61-2.62,2.48,2.48,0,0,1,2.49-2.56,2.66,2.66,0,0,1,2.61,2.61A2.47,2.47,0,0,1,92.7,160.11Z"/></g></g></svg>