<svg xmlns="http://www.w3.org/2000/svg" viewBox="0 0 356.98 233.73"><defs><style>.cls-1{isolation:isolate;}.cls-2{fill:#78d5e4;}.cls-3{fill:#2f518e;}.cls-4{fill:#fdfefe;}.cls-5{fill:#fc6454;}.cls-6{fill:#58d05b;}.cls-7{fill:#7194bf;}.cls-8{fill:#19bbd2;}.cls-9{opacity:0.1;mix-blend-mode:overlay;}.cls-10{fill:#fff;}.cls-11{fill:#7bd7e2;}</style></defs><g class="cls-1"><g id="Слой_2" data-name="Слой 2"><g id="Слой_3" data-name="Слой 3"><rect class="cls-2" x="16.5" width="328.48" height="225.39" rx="7.63"/><rect class="cls-3" x="27.62" y="7.63" width="306.23" height="210.13" rx="7.63"/><rect class="cls-4" x="75.41" y="28.88" width="40.24" height="4.46"/><rect class="cls-4" x="75.41" y="38.88" width="25.64" height="4.46"/><rect class="cls-4" x="115.41" y="38.88" width="103.12" height="4.46"/><rect class="cls-5" x="228.53" y="38.88" width="54" height="4.46"/><rect class="cls-6" x="85.41" y="48.88" width="65.12" height="4.46"/><rect class="cls-4" x="170.53" y="48.88" width="97.02" height="4.46"/><rect class="cls-5" x="75.41" y="58.88" width="91.56" height="4.46"/><rect class="cls-2" x="175.41" y="58.88" width="65.12" height="4.46"/><rect class="cls-4" x="85.41" y="68.88" width="65.12" height="4.46"/><rect class="cls-4" x="75.41" y="78.88" width="95.12" height="4.46"/><rect class="cls-4" x="75.41" y="88.88" width="65.12" height="4.46"/><rect class="cls-5" x="95.41" y="98.88" width="108.62" height="4.46"/><rect class="cls-4" x="215.41" y="98.88" width="35.12" height="4.46"/><rect class="cls-4" x="265.41" y="98.88" width="35.12" height="4.46"/><rect class="cls-4" x="105.41" y="108.88" width="44.31" height="4.46"/><rect class="cls-5" x="105.41" y="118.88" width="59.11" height="4.46"/><rect class="cls-4" x="185.41" y="118.88" width="65.12" height="4.46"/><rect class="cls-5" x="265.41" y="118.88" width="27.12" height="4.46"/><rect class="cls-4" x="75.41" y="128.88" width="40" height="4.46"/><rect class="cls-4" x="75.41" y="138.88" width="65.12" height="4.46"/><rect class="cls-4" x="105.41" y="148.88" width="118.12" height="4.46"/><rect class="cls-2" x="235.41" y="148.88" width="73.12" height="4.46"/><rect class="cls-4" x="105.41" y="158.88" width="40.12" height="4.46"/><rect class="cls-6" x="155.41" y="158.88" width="40.12" height="4.46"/><rect class="cls-4" x="205.41" y="158.88" width="40.12" height="4.46"/><rect class="cls-4" x="75.41" y="168.88" width="65.12" height="4.46"/><rect class="cls-6" x="95.41" y="178.88" width="65.12" height="4.46"/><rect class="cls-6" x="172.85" y="178.88" width="65.12" height="4.46"/><rect class="cls-4" x="171.47" y="198.88" width="36.5" height="4.46"/><rect class="cls-4" x="95.41" y="188.88" width="96.58" height="4.46"/><rect class="cls-7" x="45.77" y="28.88" width="4.46" height="4.46"/><rect class="cls-7" x="45.77" y="38.88" width="4.46" height="4.46"/><rect class="cls-7" x="45.77" y="48.88" width="4.46" height="4.46"/><rect class="cls-7" x="45.77" y="58.88" width="4.46" height="4.46"/><rect class="cls-7" x="45.77" y="68.88" width="4.46" height="4.46"/><rect class="cls-7" x="45.77" y="78.88" width="4.46" height="4.46"/><rect class="cls-7" x="45.77" y="88.88" width="4.46" height="4.46"/><rect class="cls-7" x="45.77" y="98.88" width="4.46" height="4.46"/><rect class="cls-7" x="45.77" y="108.88" width="4.46" height="4.46"/><rect class="cls-7" x="45.77" y="118.88" width="4.46" height="4.46"/><rect class="cls-7" x="45.77" y="128.88" width="4.46" height="4.46"/><rect class="cls-7" x="45.77" y="138.88" width="4.46" height="4.46"/><rect class="cls-7" x="45.77" y="148.88" width="4.46" height="4.46"/><rect class="cls-7" x="45.77" y="158.88" width="4.46" height="4.46"/><rect class="cls-7" x="45.77" y="168.88" width="4.46" height="4.46"/><rect class="cls-7" x="45.77" y="178.88" width="4.46" height="4.46"/><rect class="cls-7" x="45.77" y="188.88" width="4.46" height="4.46"/><rect class="cls-7" x="45.77" y="198.88" width="4.46" height="4.46"/><rect class="cls-4" x="95.41" y="198.88" width="48.29" height="4.46"/><path class="cls-4" d="M284.74,203.25l-19-8.07v-3.29l19-8.06v3.5l-15.08,6.21,15.08,6.21Z"/><path class="cls-4" d="M298.1,179l-8.3,28.71H287l8.3-28.71Z"/><path class="cls-4" d="M319.31,195.18l-19,8.07v-3.5l15.08-6.21-15.08-6.21v-3.5l19,8.06Z"/><path class="cls-8" d="M337,233.73H20a20,20,0,0,1-20-20H357A20,20,0,0,1,337,233.73Z"/><g class="cls-9"><polygon class="cls-10" points="129.41 217.76 204.03 7.63 175.68 7.63 101.06 217.76 129.41 217.76"/><path class="cls-10" d="M35.26,217.76H48.58L123.2,7.63H35.26a7.67,7.67,0,0,0-7.64,7.64V210.13A7.66,7.66,0,0,0,35.26,217.76Z"/><path class="cls-10" d="M287.56,217.76h38.66a7.66,7.66,0,0,0,7.64-7.63V87.38Z"/></g><g class="cls-9"><polygon class="cls-10" points="184.28 217.76 236.18 217.76 310.81 7.63 258.91 7.63 184.28 217.76"/></g><path class="cls-11" d="M354.29,223.73a19.91,19.91,0,0,0,2.69-10H0a19.82,19.82,0,0,0,2.7,10Z"/></g></g></g></svg>